<?xml version="1.0" encoding="utf-8"?>
<!-- Generator: Adobe Illustrator 26.0.1, SVG Export Plug-In . SVG Version: 6.00 Build 0)  -->
<svg version="1.1" xmlns="http://www.w3.org/2000/svg" xmlns:xlink="http://www.w3.org/1999/xlink" x="0px" y="0px"
	 viewBox="0 0 1920 1080" style="enable-background:new 0 0 1920 1080;" xml:space="preserve">
<style type="text/css">
	.st0{fill:#FFFF8F;}
	.st1{opacity:0.52;fill:url(#SVGID_1_);}
	.st2{fill:#FFFFFF;}
	.st3{fill:#171444;}
	.st4{fill:url(#SVGID_00000057124650252707937280000009380790005281358989_);}
	.st5{fill:#FBB03B;}
	.st6{fill:#06385E;}
	.st7{fill:#FF0000;}
	.st8{fill:#CE0202;}
	.st9{opacity:0.41;fill:#42210B;}
	.st10{fill:#FFAA9A;}
	.st11{fill:#EB1255;}
	.st12{fill:#B50645;}
	.st13{fill:#1C5BA2;}
	.st14{fill:#094784;}
	.st15{fill:#940F05;}
	.st16{fill:#042956;}
	.st17{fill:#DE1C24;}
	.st18{opacity:0.11;fill:url(#SVGID_00000039094995488191257900000000277973027642352269_);}
	.st19{opacity:0.52;fill:#29ABE2;}
	.st20{opacity:0.5;fill:#4AC3ED;}
	.st21{fill:#28AACE;}
	.st22{fill:#E25D73;}
	.st23{fill:#F97384;}
	.st24{fill:#FFE6EA;}
	.st25{fill:#FF97A4;}
	.st26{fill:#F9AAB0;}
	.st27{fill:#2D4370;}
	.st28{fill:#121C35;}
	.st29{fill:#AC1B26;}
	.st30{fill:#DD1C24;}
	.st31{fill:#D3DCEF;}
	.st32{fill:#ECF3F7;}
	.st33{fill:#B3C3E8;}
	.st34{fill:#1E6BC1;}
	.st35{fill:#2A5F96;}
	.st36{fill:#F4F0FD;}
	.st37{opacity:0.5;}
	.st38{fill:#0071BC;}
	.st39{opacity:0.39;}
	.st40{opacity:0.47;clip-path:url(#SVGID_00000003098291093864197810000010981592122999729847_);}
	.st41{fill:#DFE4E5;}
	.st42{opacity:0.47;clip-path:url(#SVGID_00000163056706860418875520000012730131236110049957_);}
	.st43{opacity:0.32;}
	.st44{opacity:0.26;}
	.st45{opacity:0.21;}
	.st46{fill:#455EA1;}
	.st47{fill:#045D89;}
	.st48{fill:#D6F2FC;}
	.st49{opacity:0.74;fill:#FFFFFF;}
	.st50{opacity:0.11;fill:url(#SVGID_00000125585527793737531350000013116362547882366344_);}
	.st51{font-family:'DINAlternate-Bold';}
	.st52{font-size:25.9788px;}
	.st53{font-size:26.282px;}
</style>
<g id="Capa_1">
	<g>
		<rect class="st0" width="1920" height="1080"/>
	</g>
</g>
<g id="Capa_2">
	
		<linearGradient id="SVGID_1_" gradientUnits="userSpaceOnUse" x1="10756.418" y1="755.8138" x2="11330.9111" y2="755.8138" gradientTransform="matrix(-0.995 -0.1001 -0.1001 0.995 12477.7949 1055.713)">
		<stop  offset="4.333000e-02" style="stop-color:#3AE8F0"/>
		<stop  offset="1" style="stop-color:#2B93F1"/>
	</linearGradient>
	<path class="st1" d="M1628.4,943.8c-16.9,1.1-33.7,3.5-50.6,5.4c-16.7,1.9-33.4,3.5-50.1,4.6c-13.1,0.6-26.1,0.9-39.2,0.9
		c-54.3-0.1-108.1-6.6-160.9-19.7c-11.9-3.3-23.7-7-35.4-10.9c-13.4-4.5-26.9-9.4-40.2-14.6c-20.9-15.5-40.6-33.3-58.9-52.8
		c-5.7-6.7-11.3-13.5-16.7-20.6c-13.5-20.5-25.1-43.2-34.3-67.5c-6.2-16.4-11.5-33.7-13.9-51.8c-7.1-53,11.6-107.6,40.4-144.4
		c28.8-36.9,66.6-58.5,104.6-74.6c46-19.4,93.8-31.7,142.1-36.5c64.7-6.5,134.6,2.7,185.9,57c21.4,22.7,38.4,52.1,51.9,83.9
		c43.5,102.5,49.3,231.7,15.9,339.5C1655.4,941.9,1641.8,942.9,1628.4,943.8z"/>
	<path class="st2" d="M1698.6,752.6c0.4-2.7,0.9-5.3,1.5-7.9l-118.2-48.4c4.7-13.5,8.8-24.9,10.8-30.7c7.4-0.7,41.4-3.6,86.3-7.3
		c-1.1-3.5-2.1-7-3-10.5c-81.7,6.9-148.3,12.4-151.4,12.7c-3.9-0.5-27.4-4.3-48.3-7.6c-36.8-5.9-46.1-7.3-48.8-7.7
		c-1.9-0.6-9.4-3.4-19.1-7.1c1.8-6.6,5.9-22,15.7-58.9c0.6-2.1,1.1-4.3,1.7-6.4c19.5,3.7,152.9,31.9,205.7,43.1l1,0.1l48.3-2
		c-0.1-0.6-0.2-1.1-0.3-1.7c-0.4-2.1-0.8-4.1-1.2-6.2l-46.7,2c-5.5-1.2-54.5-11.6-103-21.8c-70.3-14.8-93.6-19.6-101.8-21.1
		c4.1-15.5,18-66.5,32.1-118.2c-2.6-0.3-5.2-0.7-7.9-1c-15.3,56.2-30.8,113.2-35.6,131.2c-0.4,1.3-0.7,2.6-1,3.9
		c-95.1-6.7-118-8.1-123.8-8.4c-2.5-1.7-11.6-8.6-19-14.3c-4.7-3.6-25.8-17.9-53.2-36.4c-2,1.7-3.9,3.3-5.9,5
		c20.8,13.8,35.1,23.3,35,23.3c1.5,0.9,11.3,8.4,19.2,14.4c4.9,3.7,9.9,7.6,13.7,10.4c6.3,4.8,7.6,5.7,9.4,5.4
		c0.5,0,1.6,0.1,3.1,0.2l1.2,35.1c-10.2,1.5-23,3.5-39.2,6c-33.7,5.2-96.9,17.7-157,30c1.1,4,2.3,7.9,3.4,11.9
		c63.8-13,127.4-25.8,142.3-28.1l33.9,145.5l-98.3,67.5c1.9,2.1,3.8,4.3,5.6,6.6l215.5-147.3l7.9,10.1L1187,873.2
		c2.2,3.3,4.5,6.5,6.6,9.8l222.9-155.8l8.6,10.9l0,0l27.7,36l-201.1,150.4c2.2,1.6,4.5,3.2,6.7,4.8l199.1-148.9l30.2,39.3
		l-160,123.9c2.5,1.4,5.1,2.7,7.7,4.1l157.2-121.7l103.6,130.7c2.4-1.2,4.8-2.4,7.2-3.6L1499,821.3l48.8-37.3l123.1,175.6
		c1-0.6,1.9-1.3,2.9-1.9c1.2-0.9,2.4-1.8,3.6-2.6l-124.2-177.2c3.5-10,15.8-45,26-74L1698.6,752.6z M1289.6,572.7
		c0.2,0,0.5-0.1,0.7-0.1c0.3,0,0.6,0,0.9,0.1C1290.2,572.7,1289.8,572.7,1289.6,572.7z M1413.3,588.9c-7.3,27.6-10.8,40.5-12.4,46.4
		c-9.8-3.7-20.7-7.9-30.3-11.5c-33.4-12.7-34.9-13.2-35.7-13.4c-0.6-0.1-1.1-0.2-6.3,0.4c-0.5-6.6-1.3-18.4-1.9-28
		C1354.7,584.8,1391.8,587.3,1413.3,588.9z M1318.9,582.3c1,15.9,1.5,24.6,2,29.6c-4.4,0.6-10.2,1.5-17.9,2.6l-1.2-33.4
		C1306.4,581.5,1312.3,581.9,1318.9,582.3z M1398.2,700.4l-112.7,75.9l-33.1-142c36-5.6,73.5-11.3,80.4-12.1
		c4.1,1.5,19.1,7.2,33.6,12.7c32.5,12.3,46.8,17.7,53.4,20.1l-21.8,45.2L1398.2,700.4z M1406.4,701.4l21.3-44.3
		c6.5,1,27.2,4.3,46.1,7.3l-45.6,64.7L1406.4,701.4z M1494.2,815l-61-79.3l46-65.2l1.4,9l0.6,1.6l62.3,96.2L1494.2,815z
		 M1547.8,769.3l-59.5-91.9l-1.7-11c21.6,3.4,30.6,4.9,34.6,5.4c0.2,2.3,0.4,4.9,0.5,6.4l2.5,3.4l47.7,19.1
		C1564.2,722.7,1554.9,749.2,1547.8,769.3z M1529.4,675.2c-0.1-1.1-0.2-2.3-0.3-3.3c7.9-0.8,26.3-2.6,54.9-5.5
		c-2.1,6.1-5.5,15.7-9.4,26.9L1529.4,675.2z"/>
	<path class="st3" d="M1393.6,628.7c-0.3,0-0.5-0.1-0.6-0.1C1393.2,628.6,1393.4,628.7,1393.6,628.7z"/>
	<g>
		<g>
			
				<linearGradient id="SVGID_00000039827221680745223600000003485665711600999590_" gradientUnits="userSpaceOnUse" x1="1377.2971" y1="655.7305" x2="1639.5516" y2="830.4092" gradientTransform="matrix(0.9998 -1.923566e-02 1.923566e-02 0.9998 -35.1525 9.1775)">
				<stop  offset="0" style="stop-color:#FFB139"/>
				<stop  offset="0.4734" style="stop-color:#FF4ABF"/>
				<stop  offset="0.9913" style="stop-color:#6702B3"/>
			</linearGradient>
			<path style="fill:url(#SVGID_00000039827221680745223600000003485665711600999590_);" d="M1494.3,821.7l-1.7-0.2l-91.3-118.8
				l-0.1-1.2l23-50l-21.8-7.9l-0.7-1.4c0.1-0.5,12.9-47,15.2-55.6c-0.7,0-1.7-0.1-3-0.2l-23.7-1.8l0.2-2.4
				c9.5,0.7,27.6,2.1,28.1,2.1l0,0.2l0.6-0.1c0.8,0.5,0.8,0.5-0.1,3.8l-14.6,53.5l22,8l0.7,1.6l-23.2,50.5l90.1,117.2l54.4-41.4
				l1.7,0.3l16.5,23.5l-1.9,1.4l-15.8-22.5L1494.3,821.7z"/>
		</g>
	</g>
	<path class="st5" d="M1363.1,564.2c0,1.8-1.4,3.4-3.3,3.4c-1.8,0-3.4-1.4-3.4-3.3c0-1.8,1.4-3.4,3.3-3.4
		C1361.6,560.9,1363.1,562.3,1363.1,564.2z"/>
	
		<ellipse transform="matrix(0.9994 -3.354020e-02 3.354020e-02 0.9994 -26.0264 52.9653)" class="st6" cx="1565.7" cy="802.2" rx="18.1" ry="18.1"/>
	
		<ellipse transform="matrix(0.9998 -1.923565e-02 1.923565e-02 0.9998 -10.5377 26.2588)" class="st2" cx="1359.7" cy="560.9" rx="6.2" ry="6.2"/>
	<path class="st6" d="M1359.4,551c-4.9,0.1-8.7,4.2-8.6,9.2c0,1.7,0.5,3.3,1.3,4.6c0,0,0.1,0.1,5.9,10.7c0.5,0.9,1.1,1.3,1.9,1.3
		c0.7,0,1.4-0.5,1.8-1.4c5.1-10.2,5.4-10.8,5.4-10.8c0.8-1.4,1.3-3.1,1.2-4.8C1368.2,554.8,1364.2,550.9,1359.4,551z M1359.5,556.5
		c2.1,0,3.9,1.7,3.9,3.9c0,2.2-1.7,4-3.8,4c-2.1,0-3.9-1.7-3.9-3.9C1355.6,558.3,1357.3,556.5,1359.5,556.5z"/>
	<path class="st7" d="M1212.5,961.7c2.4-2.4,5.1-4.6,7.8-6.7l2.4,8c-0.7,1.8,1.6,0.9,1.8,2.8c-1.5,2.9-4.7,9-4,12.1
		c1,4.4,5.3,7.8,8.4,10.8c3,2.9,6,5.6,9.2,8.2c0.3,0.7,0.5,1.4,0.8,2.2c-0.8,1.8-1.5,3.6-2.3,5.4c-1.1-0.5-2.1-0.9-3.2-1.4
		c-11.3-5.2-22.4-11-33.3-17.1c-0.9-0.5-1.8-1.1-2-2.1c0-0.1,0-0.3,0-0.4C1202.7,976.1,1207.8,969,1212.5,961.7z"/>
	<g>
		<g>
			<path class="st2" d="M1216.1,970.9c0.1-0.6,0.3-1.2,0.5-1.8c0.5,0.1,1,0.2,1.5,0.4c1.3,0.5,2.7,1.1,3.9,1.7l-1,2
				c-1.2-0.6-2.4-1.2-3.7-1.6c-0.4-0.2-0.9-0.3-1.3-0.3C1216,971.1,1216,971,1216.1,970.9z"/>
		</g>
		<g>
			<path class="st2" d="M1214.2,974.5c2.1,0.1,4.2,0.4,6.3,1.1l0.7-2.1c-2.2-0.7-4.5-1.1-6.9-1.2L1214.2,974.5z"/>
		</g>
		<g>
			<path class="st2" d="M1214.4,977.3c-0.1-0.5,0-1-0.2-1.5c2.1-0.1,4.3-0.1,6.4,0.1c-0.1,0.7-0.2,1.5,0,2.1l0,0.1
				c-2-0.2-4.1-0.3-6.2-0.1C1214.5,977.8,1214.4,977.5,1214.4,977.3z"/>
		</g>
		<g>
			<path class="st2" d="M1216.9,981.1c-0.4-0.6-0.7-1.2-1.1-1.7c0.3-0.1,0.6-0.2,0.8-0.2c1.4-0.3,2.8-0.5,4.2-0.7
				c0.2,0.7,0.6,1.4,1,2.1c-1.6,0.2-3.1,0.5-4.7,0.8C1217,981.3,1217,981.2,1216.9,981.1z"/>
		</g>
		<g>
			<path class="st2" d="M1223.3,982.9l-3.7,1.7l-0.9-2l3.3-1.5C1222.5,981.7,1222.9,982.4,1223.3,982.9z"/>
		</g>
		<g>
			<path class="st2" d="M1225.7,985.3c-0.7,1.1-1.8,1.9-3,2.3l-0.8-2.1c0.9-0.3,1.6-0.9,2.1-1.7
				C1224.6,984.3,1225.2,984.8,1225.7,985.3z"/>
		</g>
		<g>
			<path class="st2" d="M1227.8,987.5c0.1,0.1,0.2,0.2,0.3,0.4c-0.6,0.9-1.4,1.7-2.2,2.4l-1.4-1.8c0.7-0.6,1.3-1.2,1.8-2
				L1227.8,987.5z"/>
		</g>
		<g>
			<path class="st2" d="M1230.3,989.9c-0.6,1-1.4,1.9-2.3,2.6l-1.4-1.7c0.8-0.7,1.5-1.5,2-2.4
				C1229.1,988.9,1229.7,989.4,1230.3,989.9z"/>
		</g>
		<g>
			<path class="st2" d="M1230.5,994.9c1-0.7,1.8-1.5,2.5-2.5l-1.8-1.3c-0.5,0.8-1.2,1.4-1.9,2L1230.5,994.9z"/>
		</g>
		<g>
			<path class="st2" d="M1232.5,997c1-0.8,2-1.7,2.7-2.7l-1.8-1.4c-0.7,0.9-1.4,1.6-2.3,2.2L1232.5,997z"/>
		</g>
	</g>
	
		<rect x="1195" y="992.4" transform="matrix(-0.9083 -0.4184 0.4184 -0.9083 1905.9836 2407.74)" class="st8" width="43.8" height="5"/>
	<path class="st9" d="M1198.1,983.5c4.6-7.4,9.7-14.5,14.4-21.8c2.4-2.4,5.1-4.6,7.8-6.7l0.5,1.5c-1.2,1.8-2.3,3.6-3.4,5.5
		c-1.5,2.6-3.3,5.3-4.1,8.2c-0.5,2.1-0.5,4.2-0.2,6.3c-0.1,1.7,0,3.4,0.5,5.2c1.6,5.2,6.1,8.3,10.3,11.2c4.4,3,9.1,5.7,13.8,8.4
		c0.1,0,0.1,0.1,0.2,0.1c0,0.1-0.1,0.2-0.1,0.3l0.1,0l-1.2,2.7v0l-0.9,1.9L1196,988L1198.1,983.5z"/>
	<path class="st10" d="M1292.4,747.4c-0.5-2,0.9-4,2.6-5.4c1.6-1.3,3.6-2.4,4.6-4.2c0.8-1.5,0.9-3.3,1.8-4.7
		c0.3-0.6,0.8-1.1,1.2-1.7c3.3-4,6.7-7.9,10.3-11.6c0.7-0.7,1.4-1.4,2.4-1.7c0.9-0.3,2.1,0,2.6,0.9c0.4,1-0.6,2-1.5,2.7
		c-1.1,0.9-2.2,1.7-3.3,2.6c-0.8,0.6-1.7,1.6-1.2,2.5c1.7-1.1,3.5-2.3,5.2-3.4c0.4-0.3,0.8-0.5,1.2-0.9c0.4-0.4,0.6-0.8,0.8-1.3
		c1.2-2.3,2.5-4.7,3.7-7c0.7,0,1.4,0.1,2.1,0.1c-0.4,2.1-0.8,4.1-1.2,6.2c-0.2,0.9-0.4,1.9-0.9,2.7c-0.3,0.4-0.6,0.8-0.6,1.3
		c0,0.5,0.3,1,0.1,1.5c-0.1,0.3-0.3,0.5-0.5,0.7c-0.3,0.4-0.3,1-0.4,1.5c-0.5,3.2-2.3,6.2-4.9,8.1c-3.2,2.3-7.6,3.1-9.8,6.4
		c-0.5,0.7-0.8,1.5-1.3,2.1c-0.5,0.7-1.2,1.3-1.9,1.8c-2.6,2.1-5.4,4-8.2,5.8c-0.1-0.6-0.2-1.1-0.4-1.7L1292.4,747.4z"/>
	<path class="st10" d="M1180.9,701.9c0.1-5.1,11.6-9,25.7-8.8c5.5,0.1,15.4,0,19.5,1.1c6.5,1.8,5.9,5.4,5.9,8.5c0,0.1,0,0.1,0,0.2
		c3.4,1.9,3,4.8,3,7.3c0,1.2-0.7,2.3-1.8,3.3c6.2,1.8,5.6,5.3,5.5,8.4c-0.1,5.1-11.6,9-25.7,8.8c-14.1-0.2-25.5-4.5-25.4-9.6
		c0-1.8,1.6-3.5,4.2-4.9c-4.9-1.7-7.9-4.2-7.9-6.8c0-0.9,0.4-1.7,1-2.5C1182.4,705.4,1180.9,703.7,1180.9,701.9z"/>
	<path class="st11" d="M1229.6,694.2c5.1,1.6,9.6,3.8,14.6,5.4c0,0.1,0.1,0.2,0.1,0.3l11.8,58.7l44.7-25.4l7.5,14.7l-53.6,24.1
		l-0.8,0.4c-2.7,1.2-5.9-0.2-6.8-3.1l-0.3-0.9L1229,708c-2.1-1.9-3.2-4.8-2.9-7.9C1226.4,698,1228.1,695.6,1229.6,694.2z"/>
	<path class="st12" d="M1225.9,697.8c2.2,2.4,4.9,4.4,7.6,6.3c0,0.1-0.1,0.3-0.1,0.4c-0.4,3.1,0.8,6,2.9,7.9l2.8,9.4
		c0.1,1.2,0.2,2.4,0.5,3.7c3.1,14.9,5.8,29.9,10,44.5c0.4,1.3,0.8,2.5,1.1,3.8c-2.1,0-4.1-1.4-4.7-3.5l-0.3-0.9l-17.9-60.6
		c-2.1-1.9-3.2-4.8-2.9-7.9C1225.1,699.7,1225.4,698.7,1225.9,697.8z"/>
	<g>
		<path class="st13" d="M1226.5,804.6l-7.5-2.2l-2.1-0.7l-1.3-1.3c-0.2,0.1-1.5,0-1.6,0l0,0l-4.6,1.3l3,0.2l-0.1-0.8l-1.1,2
			c-0.1,0-0.4,0.5-0.5,0.6c0,0,0.6-4.3-0.6-3.6l2.8,10.5l0.3,1.6l0.7,3.1c0.5,2.1,1,4.1,1.5,6.2l1.5,6.2c0.5,2,1.1,4.1,1.6,6.1
			c2.3,8.1,4.7,16.2,7.5,24.2c1.4,4,2.9,7.9,4.4,11.9c1.6,3.9,3.2,7.8,5,11.7c1.7,3.9,3.6,7.7,5.6,11.5c2,3.8,4.1,7.5,6.5,11.2
			l1.2-9.2l-38.2,64l13.3,8.6l43-60.8l1.5-2.2l-0.3-7.1c-0.2-4.4-0.7-8.6-1.4-12.9c-0.6-4.2-1.4-8.4-2.3-12.6
			c-0.9-4.2-1.8-8.3-2.9-12.4c-1.1-4.1-2.2-8.2-3.4-12.2c-2.4-8.1-5.2-16.1-8.2-24c-0.7-2-1.5-3.9-2.3-5.9l-2.4-5.9
			c-0.8-2-1.6-3.9-2.5-5.9l-1.3-2.9l-0.6-1.5l-0.3-0.7c0,0,0,0-0.1,0c-0.1,0-0.1,0-0.2,0l-0.3,0l-0.1,0l-0.2,0.1l-1,0.2l-0.2,0.1
			c-0.1,0-0.2,0-0.4,0.1l-0.9,0.3l-3.9,1.1l-6.7,2L1226.5,804.6z"/>
	</g>
	<g>
		<path class="st14" d="M1241.4,893c-2-3.8-3.8-7.6-5.6-11.5c-1.7-3.9-3.4-7.8-5-11.7c-1.6-3.9-3-7.9-4.4-11.9
			c-2.8-8-5.3-16-7.5-24.2c-0.6-2-1.1-4.1-1.6-6.1l-1.5-6.2c-0.5-2.1-1-4.1-1.5-6.2l-0.7-3.1l-0.2-1.1c4.9,7.5,9.6,15.1,14.3,22.7
			c0.5,1.2,1.1,2.3,1.6,3.5c1,2.3,2.1,4.6,3.1,6.9c0.5,1.1,1,2.3,1.5,3.4c0,0,0.2,0.4,0.3,0.7c0.1,0.3,0.3,0.7,0.3,0.7
			c4,9,7.9,18.1,11.7,27.1c2.4,5.7,7.8,16.8,10.1,22.5c-1,2.1-2.3,3.7-3.4,5.8c-4.2,8.1-10.6,15-15.4,22.8
			c-7.8,12.5-14.3,22.3-22.7,34.4l-3.9-2.5l34.8-58.2C1244.2,898.2,1242.7,895.6,1241.4,893z"/>
	</g>
	<path class="st7" d="M1189.5,975.6c1.2-3.2,2.8-6.2,4.4-9.3l5.4,6.4c0.1,1.9,1.3,3.6,2.4,5.3c-0.2,3.2-0.2,6.7,1.7,9.3
		c2.7,3.6,8,5,12.1,6.5c3.9,1.4,7.8,2.7,11.7,3.8c0.5,0.6,1.1,1.1,1.6,1.6c0,2,0,3.9,0.1,5.9c-1.2,0-2.3,0-3.5,0
		c-12.5-0.2-24.9-1-37.4-2.2c-1-0.1-2.1-0.3-2.7-1.1c-0.1-0.1-0.1-0.2-0.2-0.4C1186.4,992.8,1188.1,984.3,1189.5,975.6z"/>
	<g>
		<polygon class="st13" points="1178.5,809 1198.7,902.6 1198.8,899.3 1187.8,978 1203.2,980.8 1220,903 1220.2,902.1 1220.1,899.7 
			1217.8,805.2 		"/>
	</g>
	<polygon class="st14" points="1178.5,809 1217.8,805.2 1217.8,805.8 1192,808.3 1206.3,901.3 1191.2,978.6 1187.8,978 
		1198.5,901.5 	"/>
	<path class="st11" d="M1173.9,697.5c0.4-0.2,4-1.5,4.4-1.8c7.5-0.8,19.9-2.5,22.9-2.5c1.9,2.6,7,13.8,8.5,15.2
		c4.8,4.7-8.3,4.7-3.2,6.6c5.8,2.3,8.8,2.3,13.1,11.9c-0.2-2.3,0.4-5.5,0.1-7.8c3.7-1.3-3.8-2.7-2.7-6.5c1.3-4.3-4.6-16.2-6.5-21.6
		c1.3-0.1,17.7,3.1,19,2.9c4.2,3.9,6,9,7.8,12.8c0.1,0.2,0.2,0.5,0.3,0.7c2.6,5.6,5.3,11.6,5,17.8c-0.1,1.5-0.3,2.9-0.7,4.4
		c-0.7,1.7-1.3,3.4-1.7,5.3c-0.2,0.6-0.4,1.3-0.6,1.9c-1,3.5-1.3,7.2-1.3,10.8c-0.2,7.7,0.5,15.4,1.2,23.1
		c1.2,13.5,2.7,26.7,5.7,39.8l0,0c-0.4,0.2,0,0-1.3,0.1c-3-2.1-6.7-2.2-10.4-2.7c-16.2-2.2-39.1-1.5-55.2,1.7
		c2-22.2,12.3-27.7,13.2-41.7c0.2-3.2,0.5-6.9,3.1-8.8c-6.3-6.2-9.9-14.7-12.9-23c-2.1-5.8-4.1-11.8-4.7-17.9
		c-0.5-4.4-1-11.2-0.2-16.7c0.3-0.1-1.5-1.9-2.9-3.3C1174.9,697.8,1172.9,698,1173.9,697.5z"/>
	<path class="st12" d="M1177,718.4c-0.3-2.8-0.6-6.6-0.6-10.3c0.7,0,1.3,0.1,2,0.1c1.3,0,2.5,0.1,3.8,0.2c0.2,0,0.4,0,0.5,0
		c0.1,0,0.4,0.1,0.8,0.2c0.6,0.1,1.3,0.2,1.9,0.2c0.1,3.1,0.3,6.1,0.5,8.5c0.6,6.6,2.2,12.9,4,19.1c2.5,8.9,5.5,17.8,10.7,24.5
		c-2.1,2.1-2.3,6-2.5,9.4c-0.6,13.5-7.6,19.5-10,38.1c-3.4,0.4-6.7,0.9-9.7,1.5c2-22.2,12.3-27.7,13.2-41.7c0.2-3.2,0.5-6.9,3.1-8.8
		c-6.3-6.2-9.9-14.7-12.9-23C1179.6,730.5,1177.6,724.6,1177,718.4z"/>
	<g>
		<g>
			<path class="st2" d="M1196.5,982.6c-0.1-0.6-0.2-1.3-0.3-1.9c0.5-0.1,1-0.2,1.5-0.2c1.4-0.1,2.9-0.1,4.3,0l-0.1,2.2
				c-1.3-0.1-2.7-0.1-4,0c-0.5,0-0.9,0.1-1.3,0.2C1196.5,982.9,1196.5,982.8,1196.5,982.6z"/>
		</g>
		<g>
			<path class="st2" d="M1196.2,986.7c2-0.8,4.1-1.3,6.2-1.5l-0.2-2.2c-2.3,0.2-4.6,0.8-6.8,1.7L1196.2,986.7z"/>
		</g>
		<g>
			<path class="st2" d="M1197.6,989.2c-0.3-0.4-0.5-0.9-0.8-1.3c1.9-1,3.9-1.8,5.9-2.5c0.2,0.7,0.4,1.4,0.8,2l0,0.1
				c-2,0.6-3.9,1.4-5.7,2.4C1197.8,989.6,1197.7,989.4,1197.6,989.2z"/>
		</g>
		<g>
			<path class="st2" d="M1201.4,991.7c-0.6-0.4-1.2-0.8-1.7-1.1c0.2-0.2,0.5-0.4,0.6-0.5c1.2-0.8,2.3-1.6,3.5-2.3
				c0.5,0.5,1.1,1,1.8,1.5c-1.3,0.8-2.7,1.7-4,2.6C1201.6,991.8,1201.5,991.7,1201.4,991.7z"/>
		</g>
		<g>
			<path class="st2" d="M1208,990.7l-2.7,3l-1.7-1.5l2.4-2.7C1206.7,990,1207.4,990.4,1208,990.7z"/>
		</g>
		<g>
			<path class="st2" d="M1211.2,991.9c-0.3,1.3-0.9,2.4-1.8,3.3l-1.5-1.6c0.7-0.6,1.1-1.5,1.2-2.4
				C1209.7,991.5,1210.5,991.7,1211.2,991.9z"/>
		</g>
		<g>
			<path class="st2" d="M1213.9,993.1c0.1,0.1,0.3,0.1,0.4,0.2c-0.2,1.1-0.5,2.1-1.1,3.1l-2-1c0.4-0.8,0.7-1.6,0.9-2.5L1213.9,993.1
				z"/>
		</g>
		<g>
			<path class="st2" d="M1217.2,994.3c-0.2,1.2-0.5,2.3-1,3.3l-2-1c0.5-1,0.7-2,0.8-3C1215.8,993.9,1216.5,994.1,1217.2,994.3z"/>
		</g>
		<g>
			<path class="st2" d="M1219.4,998.8c0.6-1,1.1-2.2,1.3-3.3l-2.2-0.4c-0.2,0.9-0.5,1.8-1,2.6L1219.4,998.8z"/>
		</g>
		<g>
			<path class="st2" d="M1222,999.9c0.6-1.1,1.1-2.3,1.4-3.6l-2.2-0.5c-0.3,1-0.7,2-1.2,3L1222,999.9z"/>
		</g>
	</g>
	
		<rect x="1185.1" y="1001.8" transform="matrix(-0.9999 -1.594803e-02 1.594803e-02 -0.9999 2397.8464 2027.7516)" class="st15" width="43.8" height="5"/>
	<polygon class="st16" points="1305.9,730.7 1323.4,742.2 1344.7,709.8 1327.2,698.2 	"/>
	<polygon class="st2" points="1309.8,727.7 1322.5,736.1 1339,711.6 1326.2,703.1 	"/>
	<path class="st10" d="M1336.2,725.5c0.2-0.6,0.4-1.3,0-1.8c-0.6-0.7-1.6-0.3-2.4,0.1c-1.7,0.9-3.5,1.8-4.6,3.4
		c-1.5,2.3-1.2,5.2-2.3,7.7c-0.6,1.5-3.1,4.5-0.1,4.4C1331.3,739.1,1335,728.9,1336.2,725.5z"/>
	<polygon class="st11" points="1192.4,704.4 1227.5,700.9 1228.1,736.5 1200.9,737 	"/>
	<g>
		<path class="st16" d="M1203.4,620.2c-1.5-6.8-7.1-12.1-14.1-12.6c0,0-0.1,0-0.1,0c-4.3-0.3-8.9,0.8-12,3.8
			c-2.4,2.3-3.9,5.4-4.5,8.7s-0.5,6.6-0.2,9.9c1,9.7,6.8,31.5,10.8,40.5c1.4,3.1,2.9,6.1,3.7,9.4c0.8,3.3,0.9,6.8-0.5,9.9
			c3.3-2.1,8.7-7.4,9-11.3c0.3-3.9-0.6-7.7-1.7-11.5c-1.4-4.3-5.4-17.3-4.2-21.6c1.1-4,2.8-7.7,6.7-9.3s5.7-4,9.8-4.4L1203.4,620.2z
			"/>
		<path class="st11" d="M1195.5,635.3c0.4-2-1.3-3.9-1.1-6c0.1-0.7,0.3-1.4,0.6-2.1c0.7-1.7,1.4-3.4,2.9-4.5
			c0.9-0.7,2.1-0.9,3.2-1.2c1.3-0.3,2.5-0.5,3.8-0.6c1.4-0.2,2.8-0.3,4.1,0.3c2,0.8,3.2,3.4,2.5,5.5c-0.5,1.5-1.9,2.6-3.3,3.4
			c-0.9,0.5-1.8,0.9-2.8,1.3c-0.5,0.2-1,0.3-1.5,0.5c-1.1,0.5-2,1.4-2.5,2.4L1195.5,635.3z"/>
		<path class="st10" d="M1201.1,660c0,7.7,1.2,15.4,0.7,23c-0.4,5.2-1.5,10.2-1.6,15.4c0,0.5,0,1,0.2,1.4c0.2,0.5,0.6,0.9,0.9,1.2
			c3.9,3.3,8.7,3.6,12.9,2.5c2.1-0.5,4.3-1.4,5.7-3.4c0.4-0.6,0.8-1.2,0.9-2c0.1-0.6,0-1.2-0.1-1.7c-1.1-8.3-2.1-16.6-2.9-24.9
			c-0.1-0.5-0.1-1.1-0.3-1.5c-0.2-0.3-0.4-0.5-0.6-0.8c-1.3-1.3-2.8-2.4-4.2-3.6c-1.6-1.3-3-2.9-4.4-4.5L1201.1,660z"/>
		<path class="st16" d="M1230.9,642c0.1-2.1-0.4-4.2-1.3-6.2c-0.9-1.9-2.3-3.7-4.2-4.6c-0.4-0.2-0.9-0.3-1.1,0.1
			c1.6,3,1.5,6.9-0.2,9.8c-0.2,0.3-0.4,0.8-0.2,1.1c0.1,0.1,0.2,0.2,0.3,0.3c1.9,1.2,3.7,2.8,4.8,4.8
			C1230.3,645.9,1230.8,643.8,1230.9,642z"/>
		<path class="st16" d="M1194,640.7c3.1-2.3,7.8-2.3,10.9,0.1l1.3,5.7c0.4,0,0.6,0.5,0.5,0.9c-0.1,0.4-0.5,0.6-0.8,0.9
			c-1.9,1.6-2.3,4.4-2,6.8c0.4,3.1,1.7,6.1,3.7,8.4c0.5,0.6,1,1.1,1.5,1.7c-2.4-1-5-1.6-7.6-1.9c-0.2-0.4-0.4-0.7-0.6-1.1
			c-2.7-4.2-7.9-6.5-9.8-11.1C1189.6,647.6,1190.9,643.1,1194,640.7z"/>
		<path class="st10" d="M1228,642.2c2.5,5.6,3.5,11.8,3.3,17.9c-0.1,6.1-1.4,12.1-3.3,17.9c-0.2,0.7-0.5,1.4-1,2
			c-0.7,0.6-1.6,0.8-2.5,0.9c-4.6,0.4-9.1-1.3-12.9-4c-3.7-2.6-6.8-6.2-9.6-9.8c-1.8,0-3.5-0.8-4.8-2.1c-1.3-1.2-2.2-2.8-2.9-4.5
			c-0.6-1.4-0.9-3-0.6-4.4c0.4-1.5,1.7-2.8,3.3-2.6c0.6,0.1,1.2,0.4,1.8,0.7c2.2,1.4,3.8,3.5,4.7,5.9c-2.1-5-2.3-10.5-2.2-15.9
			c0-1.3,0.2-2.8,1.2-3.6c0.6-0.5,1.4-0.6,2.1-0.7c3.4-0.6,6.7-1.2,10.1-1.7c2.5-0.4,5-0.9,7.5-0.7c1.1,0.1,2.9,0.2,3.8,0.9
			C1226.8,639.2,1227.5,641.1,1228,642.2z"/>
		<path class="st16" d="M1196.2,640.2c-0.2-1.5-0.3-2.9-0.2-4.4c0.3-2.8,1.6-5,3.1-6.5c1.5-1.5,3.3-2.5,4.9-3.7
			c-0.4,1.1-0.4,2.5-0.1,3.7c0.2,1.3,0.7,2.4,1.2,3.5c0.8,1.6,1.7,3.1,2.7,4.5c0.1,2.8,0.6,5.5,1.4,8c-1.2,3.4-2.4,7-2.4,11
			c0,1.4,0.1,2.8-0.1,4.1c-0.7-0.2-1.5-0.3-2.2-0.5c-0.1,0-0.9,0.1-1,0c-0.1-0.1-0.2,0.2-0.3,0.1c-0.9-2-2.9-4.2-4-5.9
			c-0.7-1.1-0.6-3.1-1.4-4.2C1196.1,647.4,1196.6,643.9,1196.2,640.2z"/>
		<path class="st17" d="M1227.6,637.6c-0.7,0.9-0.3,2.2-0.7,3.2c-0.3,0.9-1.3,1.5-2.2,1.7c-0.9,0.2-1.9,0.1-2.9,0
			c-4.6-0.5-9.3-1.4-13.9-0.7c-2.4,0.4-4.6,1.1-7,1.5c-0.7,0.1-1.5,0.2-1.9-0.4c-0.5-0.7,0.2-1.7,0.8-2.3c2.7-2.6,5.5-5.1,8.8-7
			s6.9-3.3,10.6-3.3c1.1,0,2.3,0.1,3.2,0.8c0.5,0.4,1,0.9,1.6,0.8L1227.6,637.6z"/>
		<path class="st16" d="M1189.4,645.2c-0.5-4.2,2.2-5.1,5.5-5.8c-0.2-1.7,0.5-3.6,1.3-5.2c0.6-1.4,1.3-2.7,2.2-4
			c3.3-4.6,9.2-6.8,14.9-7.3c1.9-0.2,3.9-0.2,5.7,0.4c2.5,0.8,4.6,2.8,6.3,4.8c0.8,1,1.6,2,2.3,2.9c-0.1,0-0.1,0.1-0.2,0.1
			c0.3,0.4,0.5,0.7,0.8,1.1c1,1.7,1.7,3.7,1.6,5.7c-0.1,1.4-0.8,2.9-1.8,3.8c-8.8,1.8-17.2,3-26.3,2.9c-2.7,0-4.2,1.5-4.7,3.5
			c-1.2-0.1-2.4-0.2-3.6-0.5c-1-0.2-1.9-0.5-2.7-1c-0.5-0.3-0.9-0.7-1.2-1.2C1189.4,645.5,1189.4,645.4,1189.4,645.2z"/>
		<path class="st16" d="M1200.7,635.5c-0.7-1.5-2.4-2.4-4.1-2.3c-1.7,0.1-3.2,1-4.3,2.2c-1.1,1.2-1.8,2.8-2.4,4.3
			c-0.3,0.9-0.6,1.7-0.6,2.6c-0.2,1.8,0.4,3.7,1.4,5.2c1,1.6,2.3,2.9,3.7,4c0.5-2.3,1-4.8,2.6-6.6c0.7-0.7,1.5-1.3,2-2.1
			c0.6-0.8,0.8-1.9,0.2-2.7c-0.1-0.2-0.3-0.3-0.3-0.5c0-0.4,0.6-0.4,0.9-0.5c0.7-0.2,1-1.2,0.5-1.8c0.1-0.1,0.3-0.1,0.3,0.1
			L1200.7,635.5z"/>
	</g>
	<path class="st10" d="M1175.4,858c-0.1,1-0.2,2-0.8,2.8c-0.6,0.8-1.7,1.3-2.6,0.9c-0.9-0.6-0.8-2-0.5-3.1c0.3-1.4,0.6-2.7,1-4.1
		c0.2-1,0.3-2.3-0.7-2.7c-0.6,2-1.3,4-1.9,6c-0.2,0.5-0.3,0.9-0.3,1.4c0,0.5,0.1,1,0.2,1.5c0.1,0.6,0.2,1.2,0.4,1.8
		c-2-1.5-4-3-6-4.6c-0.1-0.4-0.4-0.8-0.6-1.2c-1.7-2.8-2.2-6.3-1.3-9.4c1-3.8,3.9-7.2,3.6-11.1c-0.1-0.8-0.3-1.7-0.3-2.5
		c0-0.9,0.1-1.8,0.3-2.6c0.7-3.3,1.6-6.5,2.7-9.7c0.5,0.4,0.9,0.7,1.4,1.1l3.9,1.1c1.7,1.2,1.8,3.7,1.4,5.8
		c-0.4,2.1-1.3,4.1-0.9,6.2c0.3,1.7,1.3,3.1,1.6,4.8c0.1,0.7,0.1,1.4,0.1,2.1C1176,847.6,1175.9,852.8,1175.4,858z"/>
	<path class="st11" d="M1169.2,702.5L1169.2,702.5c0-0.1,0-0.2,0-0.3c0.5-4.1,4.6-7,9.3-6.5c4.4,0.5,7.6,3.8,7.7,7.6l0.1,0
		c0,0.2,0,0.3-0.1,0.5c0,0.1,0,0.2,0,0.3c0,0.3-0.1,0.5-0.1,0.8c-0.7,4.7-1.3,9.5-1.9,14.2c-0.6,5.3-1.2,10.6-1.7,15.9
		c-1,10.6-1.7,21.2-2.4,31.8l-0.4,8c-0.1,2.7-0.3,5.3-0.4,8c-0.2,5.3-0.4,10.6-0.5,15.9c-0.1,5.3-0.1,10.6-0.1,16
		c0.1,5.3,0.2,10.7,0.6,16l-8.3-0.5l0,0l0,0l-8.3-0.5c1-5.3,1.7-10.5,2.3-15.8c0.7-5.3,1.2-10.6,1.7-15.9c0.5-5.3,0.9-10.6,1.3-15.9
		c0.4-5.3,0.7-10.6,0.9-15.9c0.4-10.6,0.8-21.2,0.8-31.9c0-5.3,0-10.6-0.1-16c-0.1-4.8-0.2-9.6-0.5-14.4
		C1169.2,703.6,1169.2,703,1169.2,702.5C1169.2,702.5,1169.2,702.5,1169.2,702.5z"/>
	<path class="st10" d="M1097.6,855.2c0.2,0.2,0.3,0.3,0.5,0.5c0.1,0.1,0.2,0.2,0.3,0.1c0.1,0,0.1-0.1,0.1-0.1
		c0.6-0.7,0.7-1.6,0.8-2.5c0-0.3,0-0.5,0-0.8c-0.1-0.2-0.2-0.5-0.3-0.7c-0.3-0.5-0.6-1-0.9-1.4c-0.3-0.5-0.7-0.9-1.2-1.2
		c-0.1,0-0.1-0.1-0.2,0c-0.1,0-0.1,0.2-0.2,0.3c-0.2,0.9,0,1.8,0.2,2.7c0.1,0.6,0.2,1.3,0.6,1.8L1097.6,855.2z"/>
	<path class="st16" d="M1325.8,725.9l0.5-2.4c0,0,0.4-0.9-0.6-1.7c-0.9-0.6-1.4-0.9-1.7-1.2c0,0,0,0-0.6-0.4
		c-0.3-0.2-0.9-0.6-1.7-1.2c-1.1-0.7-1.8,0.1-1.8,0.1l-2.1,1.4c-0.6-0.3-1.3-0.1-1.7,0.5l-1.7,2.6l0.8,0.6l-0.6,0.9
		c-0.3,0.4-0.2,1,0.2,1.2c0.4,0.3,1,0.2,1.2-0.2l0.6-0.9l5.3,3.5l-0.6,0.9c-0.3,0.4-0.2,1,0.2,1.2c0.4,0.3,1,0.2,1.2-0.2l0.6-0.9
		l0.8,0.6l1.7-2.6C1326.4,727.1,1326.3,726.4,1325.8,725.9z M1320.5,719.8c0.3-0.2,0.7,0,0.7,0l1.7,1.2l0.6,0.4l1.7,1.2
		c0,0,0.4,0.3,0.3,0.6c-0.1,0.3-0.4,1.6-0.5,2.2l-6.2-4.2C1319.2,720.8,1320.3,720,1320.5,719.8z M1316.9,723.3
		c-0.4-0.3-0.5-0.9-0.3-1.3c0.3-0.4,0.9-0.6,1.3-0.3c0.4,0.3,0.5,0.9,0.3,1.3S1317.4,723.6,1316.9,723.3z M1323.6,727.8
		c-0.4-0.3-0.5-0.9-0.3-1.3c0.3-0.4,0.9-0.6,1.3-0.3c0.4,0.3,0.6,0.9,0.3,1.3C1324.6,728,1324,728.1,1323.6,727.8z"/>
	
		<rect x="1322" y="712.2" transform="matrix(0.8569 0.5154 -0.5154 0.8569 557.0533 -579.9852)" class="st16" width="2.5" height="2.5"/>
	
		<rect x="1329.5" y="713.9" transform="matrix(0.8569 0.5154 -0.5154 0.8569 558.9687 -583.5803)" class="st16" width="2.5" height="2.5"/>
	
		<rect x="1326.2" y="714.7" transform="matrix(0.8569 0.5154 -0.5154 0.8569 558.9467 -581.7736)" class="st16" width="2.5" height="2.5"/>
	
		<rect x="1325.3" y="711.4" transform="matrix(0.8569 0.5154 -0.5154 0.8569 557.0949 -581.8047)" class="st16" width="2.5" height="2.5"/>
	
		<rect x="1330.2" y="717.2" transform="matrix(0.8569 0.5154 -0.5154 0.8569 560.8075 -583.5146)" class="st16" width="2.5" height="2.5"/>
	<g>
		
			<linearGradient id="SVGID_00000126293137635037358530000009704766703225298306_" gradientUnits="userSpaceOnUse" x1="-6106.9341" y1="5308.3833" x2="-5548.5654" y2="5698.188" gradientTransform="matrix(-0.8784 -0.2972 -0.3477 1.0278 -2779.8884 -6593.0225)">
			<stop  offset="4.333000e-02" style="stop-color:#3AE8F0"/>
			<stop  offset="1" style="stop-color:#2B93F1"/>
		</linearGradient>
		<path style="opacity:0.11;fill:url(#SVGID_00000126293137635037358530000009704766703225298306_);" d="M132.5,1002.6
			c-28.9-132.6,4.3-286.8,86.3-400.3c24.3-33.6,52.7-64,85.6-85.8c78.8-52.3,173.1-50,257.4-31c62.8,14.2,123.5,36.8,180.5,67.2
			c47.1,25.1,92.7,56.5,123.3,103.6c30.6,47.1,44.2,112.3,24.1,171.2c-6.9,20.1-17.3,38.8-28.9,56.3
			c-46.8,70.6-114.2,124.4-187.2,149.5c-25.4,8.7-51.2,14-77.1,19.1c-27.4,5.3-55,10.4-82.5,11.4c-43.1,1.7-85.1-6.5-126.9-14.6
			c-71.9-14-143.8-28-214-48.3L132.5,1002.6z"/>
		<path class="st19" d="M259.3,988.6c17.5,2.9,34.8,6.9,52.3,10.5c17.2,3.6,34.5,6.8,51.9,9.7c13.6,1.9,27.2,3.6,40.8,4.9
			c56.8,5.4,113.6,4.2,170.1-3.5c12.8-2.1,25.5-4.6,38.1-7.4c14.5-3.2,29-6.7,43.5-10.6c23.5-13.5,45.9-29.2,67.1-47
			c6.7-6.1,13.2-12.4,19.6-18.9c16.2-19.2,30.7-40.7,42.9-64.1c8.2-15.8,15.5-32.6,20-50.5c12.9-52.4-0.8-108.9-27-148.7
			c-26.2-39.8-63.4-65.3-101.5-85.2c-46.1-24.1-94.7-41.2-144.5-50.9c-66.9-13-140.9-10.8-200.1,38.4c-24.7,20.5-45.6,48.4-63,78.8
			c-56.2,98.3-75.8,227.1-52.2,338.4C231.3,983.9,245.3,986.3,259.3,988.6z"/>
		<path id="XMLID_473_" class="st20" d="M547.8,638.9c-0.4,0-0.8,0-1.1,0c0.2-1.8,0.3-3.7,0.3-5.6c0-25.5-17.8-46.2-39.7-46.2
			c-4.3,0-8.5,0.8-12.4,2.3c-2.9-29.8-24.7-53-51.1-53c-10.1,0-19.6,3.4-27.5,9.3c-4.5-27.5-27.8-48.5-55.9-48.5
			c-31.3,0-56.7,26-56.7,58.1c0,0.5,0,1.1,0,1.6c-1.4-0.1-2.9-0.2-4.4-0.2c-12,0-22.8,4.9-30.7,12.9c-10.1,8.3-17.4,20.5-20,34.7
			c-20.4,1.9-36.5,20.9-36.5,44c0,23.8,17.1,43.2,38,44.2v0.1h143.5h11h143.5v-0.1c13.4-0.1,24.5-12.1,24.5-26.9
			C572.6,650.9,561.4,638.9,547.8,638.9z"/>
		<path id="XMLID_472_" class="st21" d="M582.3,784.5c-0.4,0-0.8,0-1.1,0c0.2-1.8,0.3-3.7,0.3-5.6c0-25.5-17.8-46.2-39.7-46.2
			c-4.3,0-8.5,0.8-12.4,2.3c-2.9-29.8-24.7-53-51.1-53c-10.1,0-19.6,3.4-27.5,9.3c-4.5-27.5-27.8-48.5-55.9-48.5
			c-31.3,0-56.7,26-56.7,58.1c0,0.5,0,1.1,0,1.6c-1.4-0.1-2.9-0.2-4.4-0.2c-12,0-22.8,4.9-30.7,12.9c-10.1,8.3-17.4,20.5-20,34.7
			c-20.4,1.9-36.5,20.9-36.5,44c0,23.8,17.1,43.2,38,44.2v0.1h143.5h11h143.5v-0.1c13.4-0.1,24.5-12.1,24.5-26.9
			C607.1,796.5,595.9,784.5,582.3,784.5z"/>
		<path class="st20" d="M635.7,628.4c0,1,0,2,0.1,3.1c-1.4-0.1-2.8-0.2-4.2-0.2c-25.5,0-46.3,23-46.3,51.5
			c0,27.7,19.9,50.3,44.2,51.4v0.1h179.8v-0.1c15.6-0.1,28.4-14.1,28.4-31.3c0-17.3-13-31.3-28.9-31.3c-0.4,0-0.9,0-1.3,0
			c0.2-2.2,0.3-4.3,0.3-6.6c0-29.7-20.7-53.7-46.2-53.7c-9.1,0-17.6,3.1-24.8,8.4c-4-24.8-25-43.6-50.3-43.6
			C658.5,576.1,635.7,599.5,635.7,628.4L635.7,628.4z"/>
		<g>
			<path class="st22" d="M725.8,821.7c-6.9-38.3-42.8-64.8-81.7-59.5c-40,5.4-68.1,42.2-62.7,82.2c0.5,3.6,1.2,7.1,2.2,10.6
				c-15.9,11.8-25,31.6-22.2,52.6c4.1,30.8,32.4,52.3,63.2,48.2c10.1-1.4,19.3-5.3,26.8-11.2c13.9,9.1,31,13.4,48.8,11
				c39.3-5.3,66.9-41.5,61.6-80.8C758.7,851.5,744.8,832.3,725.8,821.7z"/>
			<path class="st23" d="M725.6,821.8c-2.2-12.3-7.4-23.4-14.8-32.6c-0.3,1.5-0.6,3.1-0.9,4.6c-1.1,5.4-2.5,10.7-4.1,15.9
				c0.1,0.4,0.2,0.9,0.2,1.3c19,10.7,32.9,29.8,36,53.1c5.3,39.3-22.3,75.5-61.6,80.8c-17.8,2.4-34.9-1.9-48.8-11
				c-7.5,5.8-16.7,9.8-26.8,11.2c-8.4,1.1-16.7,0.3-24.3-2.1c11.7,9.9,27.4,15,43.8,12.8c10.1-1.4,19.3-5.3,26.8-11.2
				c13.9,9.1,31,13.4,48.8,11c39.3-5.3,66.9-41.5,61.6-80.8C758.6,851.6,744.6,832.5,725.6,821.8z"/>
			<g>
				<path class="st24" d="M573.7,921.2c-2.8-21.1,6.4-41,22.3-52.8c-1-3.4-1.7-7-2.2-10.6c-5.4-40.2,22.8-77.1,63.1-82.5
					c20.2-2.7,39.6,3,54.6,14.5c-15.5-20.2-41.1-31.7-68.2-28.1c-40.3,5.4-68.5,42.4-63.1,82.5c0.5,3.6,1.2,7.2,2.2,10.6
					c-16,11.9-25.2,31.8-22.3,52.8c2.2,16.2,11,29.8,23.4,38.5C578.5,938.9,575,930.5,573.7,921.2z"/>
			</g>
		</g>
		<path class="st25" d="M808.7,937.3c-5,0.4-9.8,1.3-14.1,2.8c0.3-0.6,0.5-1.2,0.8-1.7c4.6-10.6,6.8-22.2,5.7-33.7
			c-5,1.1-9.7,3.3-14.1,5.9c-10.5,6.2-19.8,14.8-25.3,25.6c-2.1,4.1-3.5,8.4-4.6,12.9c-1.5-2.7-3.2-5.1-5.2-7.2
			c-4.3-4.6-9.5-7.7-15.3-8.3c-0.4,3.7-0.2,7.4,0.2,10.9c1,8.4,3.5,16.2,7.7,21.5c1.7,2.2,3.7,3.9,5.9,5.3c1.9,1.2,3.9,2.2,6,2.9
			c0.7,0.3,1.8,0.9,2.9,1.2c-0.1,0.4-0.1,0.7,0,1.1c0.6,2,3.7,3.3,5.4,3.8c2.4,0.7,5,0.6,7.4,0.4c7.4-0.6,14.8-2.5,21.4-5.9
			c6.6-3.4,12.5-8.4,16.6-14.6c-1.5-0.8-3.2-1.4-4.8-1.8c0.6-1.1,1.2-2.2,1.8-3.3c1.2-0.8,2.4-1.6,3.4-2.5c4.8-4.1,8.1-9.2,9-14.9
			C815.9,936.9,812.3,937,808.7,937.3z"/>
		<path class="st25" d="M243.9,925.5c-5,0.4-9.8,1.3-14.1,2.8c0.3-0.6,0.5-1.2,0.8-1.7c4.6-10.6,6.8-22.2,5.7-33.7
			c-5,1.1-9.7,3.3-14.1,5.9c-10.5,6.2-19.8,14.8-25.3,25.6c-2.1,4.1-3.5,8.4-4.6,12.9c-1.5-2.7-3.2-5.1-5.2-7.2
			c-4.3-4.6-9.5-7.7-15.3-8.3c-0.4,3.7-0.2,7.4,0.2,10.9c1,8.4,3.5,16.2,7.7,21.5c1.7,2.2,3.7,3.9,5.9,5.3c1.9,1.2,3.9,2.2,6,2.9
			c0.7,0.3,1.8,0.9,2.9,1.2c-0.1,0.4-0.1,0.7,0,1.1c0.6,2,3.7,3.3,5.4,3.8c2.4,0.7,5,0.6,7.4,0.4c7.4-0.6,14.8-2.5,21.4-5.9
			c6.6-3.4,12.5-8.4,16.6-14.6c-1.5-0.8-3.2-1.4-4.8-1.8c0.6-1.1,1.2-2.2,1.8-3.3c1.2-0.8,2.4-1.6,3.4-2.5c4.8-4.1,8.1-9.2,9-14.9
			C251.1,925.2,247.4,925.3,243.9,925.5z"/>
		<path class="st25" d="M318.4,931.8c-5,0.4-9.8,1.3-14.1,2.8c0.3-0.6,0.5-1.2,0.8-1.7c4.6-10.6,6.8-22.2,5.7-33.7
			c-5,1.1-9.7,3.3-14.1,5.9c-10.5,6.2-19.8,14.8-25.3,25.6c-2.1,4.1-3.5,8.4-4.6,12.9c-1.5-2.7-3.2-5.1-5.2-7.2
			c-4.3-4.6-9.5-7.7-15.3-8.3c-0.4,3.7-0.2,7.4,0.2,10.9c1,8.4,3.5,16.2,7.7,21.5c1.7,2.2,3.7,3.9,5.9,5.3c1.9,1.2,3.9,2.2,6,2.9
			c0.7,0.3,1.8,0.9,2.9,1.2c-0.1,0.4-0.1,0.7,0,1.1c0.6,2,3.7,3.3,5.4,3.8c2.4,0.7,5,0.6,7.4,0.4c7.4-0.6,14.8-2.5,21.4-5.9
			c6.6-3.4,12.5-8.4,16.6-14.6c-1.5-0.8-3.2-1.4-4.8-1.8c0.6-1.1,1.2-2.2,1.8-3.3c1.2-0.8,2.4-1.6,3.4-2.5c4.8-4.1,8.1-9.2,9-14.9
			C325.6,931.5,321.9,931.5,318.4,931.8z"/>
		<path class="st25" d="M681.2,937.7c1.4-3.9,2.4-8.1,3-12.2c0.6-4.2,0.8-8.5,0.1-12.6c-9.1,2.8-17.4,8.1-24.1,15
			c-1.1,1.1-2.1,2.2-3.1,3.4c-1.3-6.9-4.1-13.6-7.8-19.7c-2.2-3.6-4.7-7-8-9.7c-5.2,7.9-8.2,17.3-9,26.8c-0.4,5-0.2,10,0.5,14.9
			c-5.5-3.9-12-6.1-18.7-7.1c-3.3-0.5-6.6-0.7-9.9-0.1c2.1,7.1,6.3,13.6,11.6,18.8c3.3,3.2,7,6,11.1,8.3h31v1.4
			c0.8-0.1,1.5-0.1,2.1-0.2c2.8-0.1,5.7-0.3,8.5-0.8c3.1-0.6,6.2-1.5,9.2-2.8c7.2-3.3,12.9-9.1,17.2-15.8c1.8-2.8,3.3-5.8,4.1-9
			C693.1,935.4,687,936,681.2,937.7z"/>
		<g>
			<path class="st26" d="M753.3,754.7c-6.9-38.3-42.8-64.8-81.7-59.5c-40,5.4-68.1,42.2-62.7,82.2c0.5,3.6,1.2,7.1,2.2,10.6
				c-15.9,11.8-25,31.6-22.2,52.6c4.1,30.8,32.4,52.3,63.2,48.2c10.1-1.4,19.3-5.3,26.8-11.2c13.9,9.1,31,13.4,48.8,11
				c39.3-5.3,66.9-41.5,61.6-80.8C786.2,784.5,772.3,765.4,753.3,754.7z"/>
			<path class="st23" d="M753.1,754.8c-2.2-12.3-7.4-23.4-14.8-32.6c-0.3,1.5-0.6,3.1-0.9,4.6c-1.1,5.4-2.5,10.7-4.1,15.9
				c0.1,0.4,0.2,0.9,0.2,1.3c19,10.7,32.9,29.8,36,53.1c5.3,39.3-22.3,75.5-61.6,80.8c-17.8,2.4-34.9-1.9-48.8-11
				c-7.5,5.8-16.7,9.8-26.8,11.2c-8.4,1.1-16.7,0.3-24.3-2.1c11.7,9.9,27.4,15,43.8,12.8c10.1-1.4,19.3-5.3,26.8-11.2
				c13.9,9.1,31,13.4,48.8,11c39.3-5.3,66.9-41.5,61.6-80.8C786,784.6,772.1,765.5,753.1,754.8z"/>
			<g>
				<path class="st24" d="M601.2,854.2c-2.8-21.1,6.4-41,22.3-52.8c-1-3.4-1.7-7-2.2-10.6c-5.4-40.2,22.8-77.1,63.1-82.5
					c20.2-2.7,39.6,3,54.6,14.5c-15.5-20.2-41.1-31.7-68.2-28.1c-40.3,5.4-68.5,42.4-63.1,82.5c0.5,3.6,1.2,7.2,2.2,10.6
					c-16,11.9-25.2,31.8-22.3,52.8c2.2,16.2,11,29.8,23.4,38.5C605.9,872,602.5,863.5,601.2,854.2z"/>
			</g>
			<g>
				<g>
					<g>
						<g>
							<path class="st27" d="M687.3,929.4c-3.9-123.1-4.9-167.5-5-190.3l-2.8,0.3c-1.4,22.7-3.4,66.9-7.9,190H687.3z"/>
						</g>
					</g>
				</g>
			</g>
			<g>
				<g>
					<g>
						<g>
							<path class="st28" d="M691.1,929.4c-5.7-123.5-7.3-167.8-7.8-190.6l-2.8,0.3c-1,22.6-2.4,66.8-5.1,190.3H691.1z"/>
						</g>
					</g>
				</g>
			</g>
			<g>
				<g>
					<g>
						<g>
							<path class="st28" d="M679,767.8c-9.7-5.4-15.7-8.8-19.9-11.2l-0.6,1.3c4.2,2.8,10.3,6.8,20.5,13.4V767.8z"/>
						</g>
					</g>
				</g>
			</g>
			<g>
				<g>
					<g>
						<g>
							<path class="st27" d="M679,766.9c-9.7-5.2-15.6-8.4-19.8-10.7l-0.6,1.3c4.2,2.7,10.3,6.6,20.4,12.9V766.9z"/>
						</g>
					</g>
				</g>
			</g>
			<g>
				<g>
					<g>
						<g>
							<path class="st28" d="M675.4,842.7c-28.1-14.1-41-20.7-48.6-24.7l-0.6,1.4c7.5,4.7,20.4,12.4,49.2,29.3V842.7z"/>
						</g>
					</g>
				</g>
			</g>
			<g>
				<g>
					<g>
						<g>
							<path class="st27" d="M675.3,841.2c-28-13.5-40.9-19.9-48.5-23.7l-0.6,1.4c7.5,4.5,20.4,12,49.1,28.3V841.2z"/>
						</g>
					</g>
				</g>
			</g>
			<g>
				<g>
					<g>
						<g>
							<path class="st28" d="M684.7,805c22.5-11.3,32.8-16.5,38.9-19.8l0.5,1.1c-6,3.7-16.4,9.9-39.4,23.5V805z"/>
						</g>
					</g>
				</g>
			</g>
			<g>
				<g>
					<g>
						<g>
							<path class="st27" d="M684.7,803.8c22.4-10.8,32.7-15.9,38.8-19l0.5,1.1c-6,3.6-16.3,9.6-39.3,22.6V803.8z"/>
						</g>
					</g>
				</g>
			</g>
		</g>
		<g>
			<path class="st29" d="M740.5,966l3.9-1.6c4.9-7.7,7.3-16.6,9.1-25.5c2.4-12.3,3.5-25.1,1.6-37.5c-1.9-12.4-6.9-24.6-15.4-33.8
				c-1.2-1.2-2.5-2.5-4.1-2.9c-2.4-0.7-4.9,0.5-7,2c-4.6,3.3-7.9,8-11,12.8c-8.2,12.7-15.4,26.6-17.3,41.6c-2,15.3,1.7,30.8,8,45
				H740.5z"/>
			<path class="st30" d="M745.6,966c10.6-9.4,18.2-22.3,20.7-36.3c-2.9-0.2-5.8,0-8.7,0.6c-3.3,0.7-6.5,2-9.6,3.5
				c-9.6,4.7-18.1,11.6-24.7,20.1c-2.7,3.5-5.2,7.7-4.7,12.1H745.6z"/>
			<path class="st30" d="M683.4,962.5c1.5,1.2,3,2.3,4.6,3.5h34.8c-4.2-12.8-9-25.5-17.6-35.8c-12-14.5-31.2-22.8-50-21.6
				c2.7,14.6,5.6,29.9,14.9,41.6C674,954.9,678.7,958.8,683.4,962.5z"/>
		</g>
		<g>
			<path class="st22" d="M387.3,966.7c0.2-0.1,0.4-0.3,0.6-0.4c0.2,0.1,0.4,0.3,0.7,0.4h77.1c22.9-14.6,36.5-41.6,32.7-70.3
				c-3.1-23.2-17.1-42.4-36-53.1c-6.9-38.3-42.8-64.8-81.7-59.5c-40,5.4-68.1,42.2-62.7,82.2c0.5,3.6,1.2,7.1,2.2,10.6
				c-15.9,11.8-25,31.6-22.2,52.6c2.1,15.5,10.3,28.7,22,37.4H387.3z"/>
			<path class="st23" d="M416.9,966.6c-0.3,0-0.5,0.1-0.8,0.1h49.5c22.8-14.6,36.3-41.5,32.5-70.1c-3.1-23.2-17.1-42.4-36-53.1
				c-2.2-12.3-7.4-23.4-14.8-32.6c-0.3,1.5-0.6,3.1-0.9,4.6c-1.1,5.4-2.5,10.7-4.1,15.9c0.1,0.4,0.2,0.9,0.2,1.3
				c19,10.7,32.9,29.8,36,53.1C483.8,925.2,456.2,961.3,416.9,966.6z"/>
			<path class="st23" d="M387.3,966.7c0.1-0.1,0.3-0.2,0.4-0.3c0.2,0.1,0.3,0.2,0.5,0.3h10.2c-10.9-1.4-21.2-5.2-30.2-11.1
				c-7.4,5.7-16.3,9.6-26.2,11.1H387.3z"/>
			<path class="st23" d="M325.6,966.7c-2.9-0.4-5.8-1.1-8.5-2c0.8,0.7,1.6,1.3,2.4,2H325.6z"/>
			<g>
				<path class="st23" d="M319.2,966.7c-4.7-6.9-7.8-15-9-23.8c-2.8-21.1,6.4-41,22.3-52.8c-1-3.4-1.7-7-2.2-10.6
					c-5.4-40.2,22.8-77.1,63.1-82.5c20.2-2.7,39.6,3,54.6,14.5c-15.5-20.2-41.1-31.7-68.2-28.1c-40.3,5.4-68.5,42.4-63.1,82.5
					c0.5,3.6,1.2,7.2,2.2,10.6c-16,11.9-25.2,31.8-22.3,52.8c2.1,15.5,10.3,28.6,21.8,37.4H319.2z"/>
			</g>
		</g>
		<g>
			<path class="st26" d="M133.7,940.3h164.7c12.2-20.6,16.6-45.8,10.6-70.9c-12.3-51.4-63.9-83.1-115.2-70.8
				c-51.3,12.3-83,64-70.7,115.4C125.4,923.5,129,932.3,133.7,940.3z"/>
			<path class="st24" d="M132.1,940.3h13c-2.9-6-5.2-12.4-6.8-19.2c-12.4-51.7,19.5-103.6,71.2-116c18.4-4.4,36.7-3.2,53.4,2.5
				c-20.6-11.9-45.6-16.2-70.5-10.3c-51.7,12.4-83.6,64.3-71.2,116C123.5,923.1,127.2,932.2,132.1,940.3z"/>
			<path class="st23" d="M282.5,851.1c7.9,33.1-2.5,66.3-24.7,89.2h41.5c12.4-20.8,17.1-46.1,11-71.4c-7.4-30.7-28.9-54.4-56.1-65.9
				C267.8,815.5,277.9,831.9,282.5,851.1z"/>
			<g>
				<g>
					<g>
						<g>
							<path class="st27" d="M220.1,973.7c-2.9-92.9-3.6-129-3.8-148.5l-2.6,0.3c-1.2,19.4-2.8,55.3-6.3,148.2H220.1z"/>
						</g>
					</g>
				</g>
			</g>
			<g>
				<g>
					<g>
						<g>
							<path class="st28" d="M223.2,973.7c-4.2-93.2-5.5-129.3-6-148.7l-2.6,0.3c-0.9,19.3-2,55.3-4.1,148.5H223.2z"/>
						</g>
					</g>
				</g>
			</g>
			<g>
				<g>
					<g>
						<g>
							<path class="st28" d="M213.2,852.2c-9.2-5.1-14.8-8.2-18.7-10.5l-0.5,1.2c4,2.7,9.7,6.4,19.3,12.6V852.2z"/>
						</g>
					</g>
				</g>
			</g>
			<g>
				<g>
					<g>
						<g>
							<path class="st27" d="M213.2,851.3c-9.1-4.9-14.7-7.9-18.6-10.1l-0.5,1.2c4,2.6,9.7,6.2,19.1,12.1V851.3z"/>
						</g>
					</g>
				</g>
			</g>
			<g>
				<g>
					<g>
						<g>
							<path class="st27" d="M209.8,922.6c-26.4-13.2-38.5-19.4-45.7-23.2l-0.5,1.3c7.1,4.4,19.2,11.7,46.3,27.6V922.6z"/>
						</g>
					</g>
				</g>
			</g>
			<g>
				<g>
					<g>
						<g>
							<path class="st28" d="M209.8,921.2c-26.3-12.7-38.4-18.7-45.6-22.3l-0.5,1.3c7.1,4.2,19.2,11.3,46.1,26.6V921.2z"/>
						</g>
					</g>
				</g>
			</g>
			<g>
				<g>
					<g>
						<g>
							<path class="st28" d="M218.6,887.2c21.2-10.6,30.9-15.5,36.6-18.6l0.4,1c-5.7,3.5-15.4,9.3-37,22.1V887.2z"/>
						</g>
					</g>
				</g>
			</g>
			<g>
				<g>
					<g>
						<g>
							<path class="st27" d="M218.6,886.1c21.1-10.2,30.8-14.9,36.5-17.9l0.4,1c-5.7,3.4-15.4,9-36.9,21.3V886.1z"/>
						</g>
					</g>
				</g>
			</g>
		</g>
		<g>
			<rect x="408.5" y="787.3" class="st31" width="256.7" height="180.2"/>
		</g>
		<rect x="650.3" y="816.8" class="st32" width="11" height="95.8"/>
		<path class="st31" d="M659.3,818.9v91.6h-6.8v-91.6H659.3L659.3,818.9z M661.3,816.8h-11v95.8h11V816.8L661.3,816.8z"/>
		<rect x="650.3" y="791.5" class="st32" width="11" height="20"/>
		<path class="st31" d="M659.3,793.5v15.8h-6.8v-15.8H659.3L659.3,793.5z M661.3,791.5h-11v20h11V791.5L661.3,791.5z"/>
		<rect x="517.6" y="816.8" class="st32" width="11" height="95.5"/>
		<path class="st31" d="M526.5,818.9v91.4h-6.8v-91.4H526.5L526.5,818.9z M528.6,816.8h-11v95.5h11V816.8L528.6,816.8z"/>
		<rect x="517.6" y="791.5" class="st32" width="11" height="20"/>
		<path class="st31" d="M526.5,793.5v15.8h-6.8v-15.8H526.5L526.5,793.5z M528.6,791.5h-11v20h11V791.5L528.6,791.5z"/>
		<rect x="412.4" y="791.5" class="st32" width="11" height="20"/>
		<path class="st31" d="M421.3,793.5v15.8h-6.8v-15.8H421.3L421.3,793.5z M423.4,791.5h-11v20h11V791.5L423.4,791.5z"/>
		<rect x="412.4" y="816.8" class="st32" width="11" height="95.5"/>
		<path class="st31" d="M421.3,818.9v91.4h-6.8v-91.4H421.3L421.3,818.9z M423.4,816.8h-11v95.5h11V816.8L423.4,816.8z"/>
		<g id="XMLID_68_">
			<rect x="518.9" y="919.8" class="st32" width="8.4" height="47.7"/>
		</g>
		<g id="XMLID_66_">
			<g>
				<polygon class="st31" points="520.2,967.5 520.2,921.1 526,921.1 526,967.5 528.6,967.5 528.6,918.4 517.6,918.4 517.6,967.5 
									"/>
			</g>
		</g>
		<g id="XMLID_65_">
			<rect x="651.9" y="919.8" class="st32" width="8.4" height="47.7"/>
		</g>
		<g id="XMLID_64_">
			<rect x="539.8" y="925.1" class="st32" width="97.9" height="42.3"/>
		</g>
		<g id="XMLID_63_">
			<rect x="413.7" y="919.8" class="st32" width="8.4" height="47.7"/>
		</g>
		<g id="XMLID_61_">
			<g>
				<polygon class="st31" points="415,967.5 415,921.1 420.8,921.1 420.8,967.5 423.4,967.5 423.4,918.4 412.4,918.4 412.4,967.5 
									"/>
			</g>
		</g>
		<g id="XMLID_59_">
			<g>
				<rect x="640.4" y="878.6" class="st31" width="5.5" height="88.9"/>
			</g>
		</g>
		<g id="XMLID_58_">
			<rect x="531.5" y="878.6" class="st31" width="5.9" height="88.9"/>
		</g>
		<g id="XMLID_57_">
			<rect x="407.2" y="722.4" class="st32" width="260" height="65.8"/>
		</g>
		<g id="XMLID_53_">
			<g id="XMLID_54_">
				<path class="st33" d="M662.6,727.2v56.3H411.8v-56.3H662.6L662.6,727.2z M667.4,722.2H407v66.2h260.4V722.2L667.4,722.2z"/>
			</g>
		</g>
		<g id="XMLID_52_">
			<polygon class="st33" points="653.8,735.8 653.8,731.8 420.4,731.8 420.4,735.8 416.4,735.8 416.4,775.2 420.4,775.2 
				420.4,779.7 653.8,779.7 653.8,775.2 658.2,775.2 658.2,735.8 			"/>
		</g>
		<g id="XMLID_50_">
			<g>
				<rect x="405.2" y="715.4" class="st31" width="264.4" height="6.8"/>
			</g>
		</g>
		<g id="XMLID_48_">
			<rect x="401.9" y="708.8" class="st34" width="271.1" height="6.9"/>
		</g>
		<g id="XMLID_47_">
			<rect x="596.7" y="799.2" class="st34" width="46.6" height="107.6"/>
		</g>
		<g>
			<path class="st2" d="M593.2,792.4v118.8h0.6h6h40.4h5.9h0.1h-0.1V792.4H593.2z M599.4,905V798.5H640V905H599.4z"/>
		</g>
		<g id="XMLID_46_">
			<rect x="593.3" y="793" class="st35" width="7.5" height="39"/>
		</g>
		<g id="XMLID_45_">
			<rect x="638.2" y="793" class="st35" width="7.5" height="39"/>
		</g>
		<g id="XMLID_44_">
			<rect x="600.6" y="793" class="st36" width="7.5" height="39"/>
		</g>
		<g id="XMLID_43_">
			<rect x="608.1" y="793" class="st35" width="7.8" height="39"/>
		</g>
		<g id="XMLID_42_">
			<rect x="615.7" y="793" class="st36" width="7.5" height="39"/>
		</g>
		<g id="XMLID_41_">
			<rect x="623.1" y="793" class="st35" width="7.7" height="39"/>
		</g>
		<g id="XMLID_40_">
			<rect x="630.7" y="793" class="st36" width="7.5" height="39"/>
		</g>
		<g id="XMLID_39_">
			<rect x="593.2" y="831.3" class="st35" width="52.6" height="9.2"/>
		</g>
		<g id="XMLID_37_" class="st37">
			<rect x="593.2" y="793" class="st38" width="52.6" height="8.4"/>
		</g>
		<g id="XMLID_36_">
			<rect x="593.2" y="910.7" class="st34" width="52.9" height="9.1"/>
		</g>
		<g id="XMLID_34_">
			<g>
				<g>
					<rect x="535.5" y="799.2" class="st34" width="46.6" height="107.6"/>
				</g>
			</g>
		</g>
		<g>
			<path class="st2" d="M531.5,792.4v118.8h0.6h6h40.6h6h0.1h0V792.4H531.5z M537.7,905V798.5h40.7V905H537.7z"/>
		</g>
		<g id="XMLID_33_">
			<rect x="531.5" y="910.7" class="st34" width="53.2" height="9.1"/>
		</g>
		<g id="XMLID_30_">
			<g>
				<g>
					<rect x="430.8" y="845.8" class="st34" width="82.9" height="116"/>
				</g>
			</g>
		</g>
		<g id="XMLID_29_">
			<path class="st34" d="M469.1,793.9c-21.2,0-38.5,18.3-38.5,40.9h76.9C507.6,812.2,490.4,793.9,469.1,793.9z"/>
			<path class="st34" d="M469.1,794.1c10.2,0,19.8,4.2,27,11.9c7.2,7.6,11.1,17.7,11.2,28.5h-76.5c0.1-10.8,4-20.9,11.2-28.5
				C449.3,798.4,458.9,794.1,469.1,794.1L469.1,794.1z M469.1,793.9c-21.2,0-38.5,18.3-38.5,40.9h76.9
				C507.6,812.2,490.4,793.9,469.1,793.9L469.1,793.9z"/>
		</g>
		<g id="XMLID_28_">
			<rect x="450.7" y="913.6" class="st2" width="41.1" height="51"/>
		</g>
		<g>
			<path class="st2" d="M497.2,967.5v-123H445v123H497.2z M450.8,851h40.2v111.1h-40.2V851z"/>
		</g>
		<g>
			<g>
				<rect x="452.3" y="919.3" class="st31" width="37.7" height="40.2"/>
			</g>
		</g>
		<g>
			<g>
				<path class="st33" d="M489.4,920v38.9H453V920H489.4L489.4,920z M491.2,918.1h-40.1v42.6h40.1V918.1L491.2,918.1z"/>
			</g>
		</g>
		<g id="XMLID_22_">
			<path class="st2" d="M470.3,793.6c-22.3,0-40.4,19.2-40.4,43h80.9C510.7,812.7,492.6,793.6,470.3,793.6z M471.4,797.6
				c8.8,0.4,16.4,4.1,22.4,9.8l-22.4,23.8V797.6z M467.4,830.7l-22-23.4c5.9-5.6,13.7-9.2,22-9.7V830.7z M497,810.9
				c4.8,5.7,8.1,12.6,9,21h-28.7L497,810.9z M443.6,810.8l19.8,21.1h-29C435.4,823.5,438.7,816.5,443.6,810.8z"/>
		</g>
		<g class="st39">
			<defs>
				
					<rect id="SVGID_00000128481199611887933010000008845838686468468921_" x="599.4" y="841.7" class="st39" width="40.5" height="63.4"/>
			</defs>
			<clipPath id="SVGID_00000111894536214749092730000000442114385880478856_">
				<use xlink:href="#SVGID_00000128481199611887933010000008845838686468468921_"  style="overflow:visible;"/>
			</clipPath>
			<g style="opacity:0.47;clip-path:url(#SVGID_00000111894536214749092730000000442114385880478856_);">
				<g>
					<polygon class="st41" points="580.9,885 562.8,859.1 652.6,799 670.7,824.9 					"/>
				</g>
				<g>
					<polygon class="st41" points="580.7,892.7 578.5,889.6 668.3,829.4 670.4,832.5 					"/>
				</g>
				<g>
					<polygon class="st41" points="589.8,909 581.3,896.8 671.1,836.7 679.6,848.8 					"/>
				</g>
				<g>
					<polygon class="st41" points="594.5,927 586,914.9 675.8,854.7 684.3,866.9 					"/>
				</g>
			</g>
		</g>
		<g class="st39">
			<defs>
				
					<rect id="SVGID_00000021816268723319294830000016815443946246890417_" x="537.7" y="840.1" class="st39" width="40.7" height="64.9"/>
			</defs>
			<clipPath id="SVGID_00000083064334797875401090000014177785672807754641_">
				<use xlink:href="#SVGID_00000021816268723319294830000016815443946246890417_"  style="overflow:visible;"/>
			</clipPath>
			<g style="opacity:0.47;clip-path:url(#SVGID_00000083064334797875401090000014177785672807754641_);">
				<g>
					
						<rect x="500.5" y="824.3" transform="matrix(0.8251 -0.565 0.565 0.8251 -377.7114 460.6071)" class="st41" width="109.2" height="32.2"/>
				</g>
				<g>
					
						<rect x="508.3" y="858" transform="matrix(0.8251 -0.565 0.565 0.8251 -387.4035 468.3943)" class="st41" width="109.2" height="3.8"/>
				</g>
				<g>
					
						<rect x="514.3" y="864.5" transform="matrix(0.8251 -0.565 0.565 0.8251 -393.1635 473.8806)" class="st41" width="109.2" height="15.1"/>
				</g>
				<g>
					
						<rect x="519" y="883" transform="matrix(0.8251 -0.565 0.565 0.8251 -402.7998 479.8156)" class="st41" width="109.2" height="15.1"/>
				</g>
			</g>
		</g>
		<g class="st43">
			<polygon class="st41" points="454,896.5 451.2,896.5 451.2,911.1 454,909.2 			"/>
		</g>
		<g class="st43">
			<polygon class="st41" points="454,912.1 451.9,913.6 454,913.6 			"/>
		</g>
		<g class="st44">
			<g>
				<polygon class="st41" points="500.3,851.1 500.3,877.5 510.4,870.6 510.4,851.1 				"/>
			</g>
			<g>
				<polygon class="st41" points="500.3,880.5 500.3,885.1 510.4,878.2 510.4,873.6 				"/>
			</g>
			<g>
				<polygon class="st41" points="500.3,889.7 500.3,907.9 510.4,901 510.4,882.8 				"/>
			</g>
			<g>
				<polygon class="st41" points="500.3,911.3 500.3,929.5 510.4,922.6 510.4,904.5 				"/>
			</g>
			<g>
				<polygon class="st41" points="500.3,937.9 500.3,949.7 510.4,942.8 510.4,931 				"/>
			</g>
			<g>
				<polygon class="st41" points="500.3,958.9 500.3,960.1 510.4,960.1 510.4,952.1 				"/>
			</g>
			<g>
				<polygon class="st41" points="482.3,851.1 451.1,872.4 451.1,893.7 456.6,893.7 456.6,907.4 491,883.9 491,851.1 				"/>
			</g>
			<g>
				<polygon class="st41" points="456.6,910.3 456.6,913.5 458.6,913.5 491,891.4 491,886.8 				"/>
			</g>
			<g>
				<polygon class="st41" points="491,896.1 465.4,913.5 491,913.5 				"/>
			</g>
			<g>
				<polygon class="st41" points="469.8,851.1 451.1,863.9 451.1,868.5 476.5,851.1 				"/>
			</g>
			<g>
				<polygon class="st41" points="451.1,851.1 451.1,859 462.7,851.1 				"/>
			</g>
		</g>
		<g class="st45">
			<g>
				<polygon class="st41" points="431.9,851.1 431.9,877.5 441.9,870.6 441.9,851.1 				"/>
			</g>
			<g>
				<polygon class="st41" points="431.9,880.5 431.9,885.1 441.9,878.2 441.9,873.6 				"/>
			</g>
			<g>
				<polygon class="st41" points="431.9,889.7 431.9,907.9 441.9,901 441.9,882.8 				"/>
			</g>
			<g>
				<polygon class="st41" points="431.9,911.3 431.9,929.5 441.9,922.6 441.9,904.5 				"/>
			</g>
			<g>
				<polygon class="st41" points="431.9,937.9 431.9,949.7 441.9,942.8 441.9,931 				"/>
			</g>
			<g>
				<polygon class="st41" points="431.9,958.9 431.9,960.1 441.9,960.1 441.9,952.1 				"/>
			</g>
		</g>
		<g id="XMLID_21_">
			<rect x="531.5" y="793" class="st35" width="7.6" height="39"/>
		</g>
		<g id="XMLID_20_">
			<rect x="577" y="793" class="st35" width="7.6" height="39"/>
		</g>
		<g id="XMLID_19_">
			<rect x="538.9" y="793" class="st36" width="7.9" height="39"/>
		</g>
		<g id="XMLID_18_">
			<rect x="546.8" y="793" class="st35" width="7.6" height="39"/>
		</g>
		<g id="XMLID_17_">
			<rect x="554.2" y="793" class="st36" width="7.8" height="39"/>
		</g>
		<g id="XMLID_16_">
			<rect x="561.9" y="793" class="st35" width="7.6" height="39"/>
		</g>
		<g id="XMLID_15_">
			<rect x="569.4" y="793" class="st36" width="7.6" height="39"/>
		</g>
		<g id="XMLID_14_">
			<rect x="531.4" y="831.3" class="st35" width="53.3" height="9.2"/>
		</g>
		<g id="XMLID_13_" class="st37">
			<rect x="531.4" y="793" class="st38" width="53.3" height="8.4"/>
		</g>
		<g>
			<path class="st2" d="M428.3,844.3v122.9h85.3l0.1-122.9H428.3z M441.7,959.8h-10.2v-109h10.2V959.8z M496.9,959.8H445v-109h51.9
				V959.8z M510.4,959.8h-10.2v-109h10.2V959.8z"/>
		</g>
		<g>
			<g>
				<polygon class="st35" points="495.3,944.7 492.5,944.7 492.5,947.5 495.3,947.5 495.3,949.2 496.6,949.2 496.6,943.1 
					495.3,943.1 				"/>
			</g>
			<g>
				<polygon class="st35" points="495.3,863.1 495.3,864.8 492.5,864.8 492.5,867.6 495.3,867.6 495.3,869.2 496.6,869.2 
					496.6,863.1 				"/>
			</g>
		</g>
		<g id="XMLID_3_">
			<path class="st35" d="M450.4,917.8c0,0.8-0.6,1.4-1.3,1.4c-0.7,0-1.3-0.6-1.3-1.4c0-0.8,0.6-1.4,1.3-1.4
				C449.8,916.4,450.4,917,450.4,917.8z"/>
		</g>
		<g>
			<g>
				<polygon class="st35" points="454,894 448.4,894 448.4,896.9 454,896.9 454,915.3 456.6,915.3 456.6,896.9 456.6,894 				"/>
			</g>
		</g>
		<path class="st30" d="M326.7,921.5c-15.6,8.2-25.3,25.4-38.1,38.1c-1.3,1.3-3.3,2.5-4.8,1c-0.7-0.7-1-1.7-1.1-2.6
			c-1-6.5,2.9-11.5,6.4-15.9c13-16.5,22.2-37.1,26.7-59.7c1.7-8.5,2.5-18.5-2.5-26.4c-14.8,11.2-26.5,27.3-33.5,46.4
			c-2.3,6.2-5,13.6-11.1,14.1c2.3-23.7,3.3-47.7,3.1-71.9c-0.1-9-0.3-18.1-2.3-27.2c-2.5-11.6-7.8-22.6-13-33.5
			c-0.7-1.4-1.3-2.8-2.4-3.8c-3-3-7.2-1.1-9.8,1.3c-9.6,9-13.6,24.3-13.1,39.7c0.5,15.4,5,31,10.4,46c5.4,15,11.7,29.7,16.1,45
			c0.8,2.7,0.6,6.8-1.8,6.2c-0.7-0.2-1.3-0.7-1.9-1.3c-3.6-3.6-6.7-7.8-9.8-11.9c-15.7-20.4-34.4-39.4-56.1-47.1
			c-2.5-0.9-5-1.6-7.4-1.2c-6.4,1.1-8.9,9.8-7.8,17.5c1.7,11.6,9,22.1,16.7,31c14.1,16.3,30.3,30.1,47.8,40.4
			c6.4,3.8,13.3,7.5,17.3,14.4c-12.9-0.6-25.5-9.2-38.2-15c-12.7-5.8-28-8.3-36.3,1.7c-0.9,1-1.6,2.2-1.8,3.7
			c-0.4,3.2,2.1,6.4,4.4,8.9c23.6,25.4,52.4,44.1,82.2,53.2l5.7,1l41.3-18.3c11.4-10.9,21.3-23.6,27.2-39.5c3.4-9,5.2-20.1,0.5-29.8
			c-0.9-1.9-2.1-3.7-3.7-4.9C333.2,918.9,329.6,920,326.7,921.5z"/>
		<path class="st25" d="M345.5,1005.9c16.3-11.8,29.4-28.6,37.4-48c8-19.4,11-41.3,8.5-62.6c-15.2,1.5-29,9.8-41.7,18.8
			c-15,10.7-29.6,22.9-39.6,39c-10.1,16.1-15.3,36.7-10.5,55.7L345.5,1005.9z"/>
		<path class="st10" d="M401.9,705.8c2-2.3,4.4-4.4,5.4-7.3c0.8-2.3,0.5-4.9,1.2-7.2c0.3-1,0.8-1.8,1.3-2.7
			c3.7-6.5,7.3-13.1,11.5-19.3c0.8-1.2,1.7-2.4,2.9-3s3-0.6,3.9,0.6c0.8,1.4-0.3,3.1-1.4,4.3c-1.3,1.5-2.7,3-4,4.5
			c-1,1.1-1.9,2.8-1,3.8c2.2-2.1,4.3-4.2,6.5-6.3c0.5-0.5,1-1,1.4-1.6c0.4-0.6,0.6-1.4,0.8-2.1c0.2-0.6,0.4-1.3,0.6-1.9
			c1.6,1.6,3.3,2.9,5.1,4.2c-0.2,0.5-0.5,1.1-0.4,1.6c0.1,0.7,0.6,1.3,0.5,2c-0.1,0.4-0.3,0.8-0.5,1.2c-0.3,0.7-0.2,1.5-0.2,2.3
			c0.2,4.7-1.6,9.5-4.8,12.9c-3.9,4.1-9.9,6.5-12.2,11.7c-0.5,1.1-0.8,2.3-1.3,3.4c-0.6,1.1-1.4,2.1-2.2,3.1
			c-3.2,3.7-6.5,7.2-10.1,10.5c-0.3-0.8-0.6-1.6-1-2.3l-4.2-4C398.4,711.4,399.9,708.1,401.9,705.8z"/>
		<polygon class="st16" points="404.1,683.1 427.2,692.8 444,652.1 420.9,642.4 		"/>
		<polygon class="st2" points="407.2,679 425.5,686.7 438.6,655.8 420.3,648.1 		"/>
		<path class="st10" d="M436.8,675.5c0.1-0.8,0.2-1.7-0.4-2.2c-0.8-0.7-2,0-2.9,0.6c-1.9,1.4-3.8,3-4.7,5.1c-1.3,3.1-0.3,6.5-1,9.7
			c-0.4,1.9-2.6,6.1,0.9,5.2C434,692.7,436.2,679.8,436.8,675.5z"/>
		<path class="st46" d="M336.5,1003.9c-0.2-0.3-0.6-0.4-0.9-0.4c-6.8-1.5-13.1-4.5-19-8.1c-2.5-1.6-5-3.2-7.9-4
			c-3.8-1-7.9-0.3-11.8,0.4c-0.8,0.1-1.7,0.3-2.2,1c-0.1,0.2-0.3,0.4-0.3,0.6c-0.6,4.4-1.1,8.8-1.6,13.2c0.2,0.3,0.5,0.6,0.8,0.8
			c0.8,0.4,1.7,0.4,2.6,0.4c13.4,0.2,26.7,0.3,40.1,0.5l0.2-3.4C336.6,1004.5,336.6,1004.2,336.5,1003.9z"/>
		<path class="st46" d="M397.3,1003.6c-0.2-0.3-0.6-0.4-0.9-0.5c-7.2-1.6-14-4.8-20.2-8.7c-2.7-1.7-5.3-3.5-8.4-4.3
			c-4.1-1.1-8.4-0.4-12.5,0.4c-0.7,0.1-1.5,0.3-2,0.8c0,0.4,0,0.9-0.1,1.3c-0.1,0.7-0.2,1.4-0.4,3c-0.2,1.3-0.3,2.5-0.5,3.8
			c-0.3,2.5-0.5,5-0.8,7.6c0.1,0.1,0.2,0.1,0.3,0.2c0.8,0.4,1.8,0.5,2.7,0.5c14.2,0.2,28.5,0.4,42.7,0.6c0.1-1.2,0.2-2.4,0.3-3.6
			C397.5,1004.3,397.5,1003.9,397.3,1003.6z"/>
		<path class="st6" d="M299.7,801.7c0,2.2-7.1,192.8-7.1,192.8h19.8l22-167.9L352.6,991H370l-10.9-188.1l-55.4,1.9l-5.3,4.8
			L299.7,801.7z"/>
		<path class="st47" d="M358.3,781c0-0.5-0.1-1-0.1-1.5c-0.3-8.8,0.2-17.8,1.6-26.5c0.6-3.6,1.4-7,2.5-10.4c0.3-1.4,0.6-2.9,0.9-4.3
			c0.6-4.7,1.1-9.5,1.4-14.3c-0.1-1.2-0.2-2.5-0.3-3.7c-0.1-1.5-0.3-3.1-0.4-4.6c-0.1-0.9-0.2-1.9-0.2-2.8
			c-0.6-6.5-1.8-14.1-8.7-17.6c-3-1.6-6.7-2.1-10.3-2.4c-11.4-1-23-0.8-34.3,0.8c-0.2,0.6-0.5,1.3-0.7,1.9l-14.9,2.3
			c-1.9,4.5-3,9.2-4,13.9c-1.3,6.5-2.4,13.1-3.3,19.6c0.5,2.1,1,4.1,1.4,6.3c4.1,23.4,7.5,47,9.6,70.7c13.6-0.2,27.1-0.4,40.7-0.6
			c6.9-0.1,13.8-0.2,20.6-0.5c-0.4-3.6-0.8-7.2-1.1-10.8C358.4,791.2,358.2,786.1,358.3,781z"/>
		<path class="st47" d="M423.2,703c-6-3-10.6-4.2-16.6-7.2c-5.6,12.1-11.9,24.9-18.1,37.9c-9.6-12.3-19.2-24.2-28.9-34.9
			c-1.4-1.5-4.6-0.1-6-1.6l-13,20.6c10,8.5,19.1,18.1,28.1,27.7c7,7.4,13.9,14.9,20.6,22.6c2,2.3,5.8,1.6,6.8-1.4c0,0,0,0,0-0.1
			c5.3-15,13.3-36.3,20.3-50.6C417.6,713.7,421.2,704.9,423.2,703z"/>
		<path class="st10" d="M245.6,814.9c-0.6,1.9-1.2,3.9-1.9,5.8c-1.1,3.4-2.2,7-1.9,10.5c0.3,3.8,2.1,7.4,3.9,10.9
			c0.9,1.6,2,3.5,4,3.7c1.4,0.1,2.7-0.8,3.7-1.8c1.7-1.9,2.6-4.2,3-6.6c0.2-1.3,0.3-2.7,0.9-3.9s1.8-2.3,3.3-2.2
			c0.7,0,1.5,0.2,2-0.2c0.3-0.2,0.3-0.5,0.4-0.9c0.2-1.7-0.6-3.4-1.5-4.9c-1.8-3.3-3.7-6.6-5.5-10c-0.3-0.6-0.6-1.1-1.2-1.5
			c-0.5-0.4-1.4-0.5-1.9,0L245.6,814.9z"/>
		<path class="st47" d="M301.3,713.1c-4.6,3.8-8.1,8.6-11.3,13.6c-15.7,24-26.6,67.1-29.9,95.6c-5.4,0-10.7-0.5-16-1.5
			c0.2-18.1,2.4-51.6,6.8-69.1c4.5-17.5,12.4-34.5,24.8-47.6c2.9-3,6-5.9,9.7-7.7c3.5-1.7,7.5-2.3,11.4-2.8c5-0.5,10-0.7,15-0.4
			c3.6,0.2,7.4,0.6,10.5,2.6c1.1,0.7,2.1,1.6,2.4,2.8c0.2,0.9,0,1.8-0.3,2.7c-1.6,5-5.5,9.1-9.9,11.9c-4.5,2.8-9.5,4.5-14.5,6.2
			L301.3,713.1z"/>
		<g>
			<path d="M320.9,611.5c-1.7-1.2-4-1.4-6.1-0.9c-2,0.5-3.9,1.7-5.4,3.1c-1.2,1.1-2.3,2.4-3,3.8c-1.2,2.6-1.2,5.5-0.8,8.3
				c0.5,3.4,1.5,6.6,2.6,9.8c0.8,2.3,1.7,4.7,3.1,6.8c2.2,3.4,5.5,6.1,6.5,10c1.6-6.4,5.4-12.5,5-19.1c-0.2-3.1-1.2-6.1-1.5-9.2
				c-0.3-2.9,0.4-6.5,3-8.3C323.2,614.3,322.6,612.6,320.9,611.5z"/>
			<path class="st10" d="M338.1,696.2c-8.8,2.3-19.8,3.6-28.3-0.6c-0.1-0.3-0.3-0.6-0.4-0.8c-0.2-0.3-0.3-0.6-0.5-1
				c0-0.1,0-0.1,0-0.2c0.8-11.7,1.9-23.4,4.2-34.9c1.1-5.5,2.5-11.1,1.2-16.5c-0.5-1.9-1.2-3.8-1.5-5.8c-0.3-2.5,0.4-5.5,3-6.1
				c1.4-0.3,2.9,0.3,3.9,1.5c2.2,2.6,2.2,6.2,2.1,9.5c-0.1,3.5-0.1,6.9-0.2,10.4l2,4.8c1.4,4.9,4.8,8.6,8.1,12.1
				c1.7,1.8,3.4,3.6,5.1,5.3c0,4.7,2.9,14.8,3.8,21.6C339.8,695.8,338.9,696,338.1,696.2z"/>
			<path class="st10" d="M348.5,640.2c-0.2,6.2-1.3,12.4-2.6,18.5c0,0.2-0.1,0.4-0.2,0.5c-0.1,0.1-0.3,0.1-0.5,0.2
				c-3.4,0.3-6.9-0.1-10.3-0.6c-2.7-0.4-5.6-1-7.4-3c-1.2-1.4-1.8-3.2-2.2-4.9c-0.5-2.4-2.4-4.4-2.4-6.8c0-1.5,0.3-3.8,0-5.2
				c-0.2-0.8-0.1-1.7-0.4-2.4c-0.6-1.4-0.2-2.2-0.8-3.6c-1.6-3.7-3.2-7.5-3.4-11.5c0-0.3,0-0.6,0.1-0.9c0.1-0.3,0.4-0.5,0.7-0.7
				c1.6-1.1,3.6-1.1,5.5-0.8c1.9,0.4,3.6,1.1,5.5,1.4c2.4,0.5,4.9,0.3,7.3,0.3c1.2,0,2.5,0,3.7,0.1c0.8,0.1,2.6,0.7,3.1,0.2
				c-0.1-0.1-0.3-0.3-0.4-0.4c2.4,1.7,3.1,4.1,3.7,6.8C348.3,631.6,348.6,635.9,348.5,640.2z"/>
			<path d="M316.4,621.6c4.2,0.3,7.9,3.6,8.1,7.8c0,0.3,0,0.7,0,1c-0.1,1.7-0.6,3.3-0.9,5c-0.8,4.6,0.3,9.2,1.5,13.7
				c0.5,2,1.2,4.2,3,5.1c1.8,1,4.1,0.3,5.9-0.8c1.8-1.1,3.3-2.6,5.2-3.5c2-0.9,4.2-1,6.3-0.5c1.1,0.3,2.2,0.7,3,1.6
				c0.6,0.7,1,1.5,1.2,2.4c0.7,2.6,0.8,5.4,0.4,8.1c-0.6,4.1-1.5,8.1-2.7,12.1c-0.6,1.8-1.2,3.7-2.8,4.8c-2.2,1.6-5.3,1.1-7.8,0.1
				c-5.1-2-9.5-5.4-12.7-9.8c-3.1-4.4-4.9-9.9-4.8-15.3c0.1-5,1.7-9.9,2.3-14.8c0.5-5-1.9-9.4-5.6-12.7c0.6-0.6-2.4-5.9-2.7-6.7
				L316.4,621.6z"/>
			<path d="M333.4,626.3c3.8,1.1,7.7,1.8,11.6,2c2.2,0.1,4.6,0,6.6-1.2c2.5-1.5,3.7-4.4,4.5-7.2c1.2-4.1,1.9-8.7-0.2-12.3
				c-3.9,3.2-9.6,2.5-14.5,1.3c-4.9-1.2-10-3-14.9-1.5c-5.1,1.6-11.1,8.4-8.9,13.9c0.9,2.2,3.4,2.3,5.5,2.6
				C326.7,624.4,329.9,625.2,333.4,626.3z"/>
		</g>
		<path class="st29" d="M223.8,1019c4.4,0.4,8.7,0.8,13.1,1.2l27.7-7.7l2-1.4c11.2-18.5,22.6-37.6,25.7-58.9
			c0.4-3.1,0.6-6.5-1.5-8.9c-2.5-2.8-6.8-2.5-10.4-1.4c-11.4,3.5-20,13.3-25.6,23.9c-4.1,7.9-7,16.4-8.4,25.2
			c-1.5-0.3-2.4-1.9-2.5-3.4c-0.1-1.5,0.5-3,1.2-4.3c4.3-9.7,9.7-18.9,13.7-28.7c4-9.8,6.8-20.4,5.7-31c-0.2-2.1-0.7-4.5-2.4-5.9
			c-1.3-1.1-3-1.4-4.7-1.4c-6.9,0-13,5-16.1,11.1c-3.2,6.1-4.1,13.1-4.9,19.9c-0.7,5.5-1.3,11.1-2,16.6c-0.4,3-1.4,6.6-4.3,7.1
			c-1.7,0.3-3.4-0.8-4.4-2.3s-1.4-3.2-1.8-4.9c-2.6-11-6.3-21.7-10.8-32c-2.7-6.2-5.9-12.3-10.9-16.9c-5-4.6-12.1-7.2-18.6-5.4
			c-2.7,0.8-5.4,2.5-6.6,5.1c-1.1,2.3-0.9,5-0.6,7.5c2.9,21.3,16.2,41,34.9,51.6c3.3,1.9,7.2,4,7.7,7.8c-8.4-2.2-15.7-7.4-23.3-11.7
			c-7.6-4.3-16.1-8-24.7-6.9c-0.4,2.9,1,5.7,2.6,8.1c5,7.7,12.5,13.4,20.8,17.2c8.3,3.8,17.4,5.7,26.4,6.7c4.1,0.4,8.9,1,11.2,4.4
			c0.2,0.3,0.4,0.7,0.4,1c0,1.2-1.6,1.4-2.8,1.2c-17-2.3-33.6-8.6-50.7-7.9c-1.5,0.1-3.1,0.3-4.1,1.4c-1,1.2-0.9,3-0.4,4.5
			c1.5,5.2,5.7,9.3,10.4,11.9c4.8,2.6,10.1,3.8,15.5,4.7C208.1,1017.5,215.9,1018.2,223.8,1019z"/>
		<circle class="st48" cx="537.9" cy="543.9" r="68.4"/>
		<path class="st47" d="M534.8,604.4c-32.9,0-59.7-26.7-59.7-59.7c0-32.9,26.7-59.7,59.7-59.7c32.9,0,59.7,26.7,59.7,59.7
			C594.4,577.7,567.7,604.4,534.8,604.4z M534.8,464.1c-43.3,0-78.4,35.1-78.4,78.3c0,14.9,4.2,28.9,11.4,40.8
			c0.4,1.1,62.1,109.5,66.9,109.5c4.7,0,66.3-108,66.6-108.9c7.5-12,11.8-26.2,11.8-41.4C613.2,499.2,578.1,464.1,534.8,464.1z"/>
		<polygon class="st49" points="394.5,991.2 856.9,1017 856.9,968.1 394.5,968.1 		"/>
		<g>
			<path class="st47" d="M440.8,738.7h8.1l3.6,25.8h0.1l3.6-25.8h8.1v36h-5.3v-27.2h-0.1l-4.1,27.2H450l-4.1-27.2h-0.1v27.2h-4.9
				V738.7z"/>
			<path class="st47" d="M472.8,738.7h7.7l5.9,36h-5.7l-1-7.1v0.1h-6.4l-1,7H467L472.8,738.7z M479,762.8l-2.5-17.8h-0.1l-2.5,17.8
				H479z"/>
			<path class="st47" d="M489.1,738.7h8.4c2.9,0,5,0.7,6.4,2c1.3,1.4,2,3.4,2,6.2v2.2c0,3.7-1.2,6.1-3.7,7.1v0.1
				c1.4,0.4,2.3,1.3,2.9,2.5c0.6,1.3,0.8,3,0.8,5.1v6.3c0,1,0,1.9,0.1,2.5c0.1,0.6,0.2,1.3,0.5,1.9h-5.8c-0.2-0.6-0.3-1.1-0.4-1.6
				c-0.1-0.5-0.1-1.4-0.1-2.8v-6.6c0-1.6-0.3-2.8-0.8-3.4c-0.5-0.7-1.4-1-2.8-1h-2v15.4h-5.7V738.7z M496.8,754.2
				c1.1,0,2-0.3,2.5-0.9c0.6-0.6,0.8-1.6,0.8-2.9v-2.8c0-1.3-0.2-2.2-0.7-2.8c-0.5-0.6-1.2-0.9-2.2-0.9h-2.6v10.3H496.8z"/>
			<path class="st47" d="M511.6,772.9c-1.4-1.5-2.1-3.7-2.1-6.5v-19.3c0-2.8,0.7-5,2.1-6.5c1.4-1.5,3.5-2.3,6.2-2.3s4.8,0.8,6.2,2.3
				c1.4,1.5,2.1,3.7,2.1,6.5v3.8h-5.3v-4.2c0-2.2-0.9-3.3-2.8-3.3c-1.9,0-2.8,1.1-2.8,3.3v20.1c0,2.2,0.9,3.3,2.8,3.3
				c1.9,0,2.8-1.1,2.8-3.3v-5.5h5.3v5.1c0,2.8-0.7,5-2.1,6.5c-1.4,1.5-3.5,2.3-6.2,2.3S513,774.5,511.6,772.9z"/>
			<path class="st47" d="M529.5,738.7h5.7v14.7h6.1v-14.7h5.7v36h-5.7v-16.2h-6.1v16.2h-5.7V738.7z"/>
			<path class="st47" d="M555.5,738.7h7.7l5.9,36h-5.7l-1-7.1v0.1h-6.4l-1,7h-5.2L555.5,738.7z M561.6,762.8l-2.5-17.8H559
				l-2.5,17.8H561.6z"/>
			<path class="st47" d="M571.7,738.7h7.1l5.5,21.5h0.1v-21.5h5v36h-5.8l-6.8-26.3h-0.1v26.3h-5V738.7z"/>
			<path class="st47" d="M593.7,738.7h8.6c2.8,0,4.9,0.8,6.3,2.3c1.4,1.5,2.1,3.7,2.1,6.6v18.2c0,2.9-0.7,5.1-2.1,6.6
				c-1.4,1.5-3.5,2.3-6.3,2.3h-8.6V738.7z M602.2,769.6c0.9,0,1.6-0.3,2.1-0.8c0.5-0.5,0.7-1.4,0.7-2.7v-18.7c0-1.2-0.2-2.1-0.7-2.7
				s-1.2-0.8-2.1-0.8h-2.9v25.7H602.2z"/>
			<path class="st47" d="M616.3,772.9c-1.5-1.6-2.2-3.8-2.2-6.7v-18.9c0-2.9,0.7-5.1,2.2-6.7c1.5-1.6,3.6-2.4,6.4-2.4
				c2.8,0,4.9,0.8,6.4,2.4c1.5,1.6,2.2,3.8,2.2,6.7v18.9c0,2.9-0.7,5.1-2.2,6.7c-1.5,1.6-3.6,2.4-6.4,2.4
				C619.9,775.2,617.8,774.4,616.3,772.9z M625.6,766.5v-19.6c0-2.4-1-3.5-2.9-3.5c-2,0-2.9,1.2-2.9,3.5v19.6c0,2.4,1,3.5,2.9,3.5
				C624.7,770.1,625.6,768.9,625.6,766.5z"/>
		</g>
		<path class="st47" d="M560.5,520.4c0-9.1-4.9-16.4-10.9-16.4c-6,0-10.9,7.4-10.9,16.4c0,7.5,3.3,13.8,7.9,15.8l-0.9,46.9
			c0,2.1,1.7,3.9,3.9,3.9c2.1,0,3.9-1.7,3.9-3.9l-0.9-46.9C557.1,534.3,560.5,528,560.5,520.4z M523.4,505.5V520
			c0,0,0.1,1.6-1.6,1.6c-1.6-0.2-1.5-1.5-1.5-2.6c0-17.4,0-13.6,0-13.6H516v15.1c0,0,0.2,1-1.7,1.2c-1.8,0-1.6-1.4-1.6-2.4
			c0-17.5,0-13.7,0-13.7h-4.1l-0.2,16.6c0,0-0.7,6.9,2.3,8.9c1.6,1.1,3.3,2.7,4.5,4.4l-0.8,47.5c0,2.1,1.7,3.9,3.9,3.9
			c2.1,0,3.9-1.7,3.9-3.9l-0.8-46.8c0.6-1,1.5-2.4,2.8-3.7c2.4-2.3,4.7-3.4,4.7-10.6c-0.8-20.2-0.8-16.4-0.8-16.4H523.4z"/>
	</g>
	<path class="st48" d="M1567.2,791.6c-1.8-2.1-4.3-2.8-5.7-1.7c-1.4,1.2-1.1,3.8,0.7,5.9c1.5,1.7,3.5,2.5,4.9,2.1l8.9,11
		c0.4,0.5,1.2,0.6,1.6,0.1c0.5-0.4,0.6-1.2,0.1-1.6l-9.3-10.6C1569.1,795.4,1568.6,793.3,1567.2,791.6z M1555.7,795.4l2.8,3.3
		c0,0,0.3,0.4-0.1,0.7c-0.4,0.3-0.6-0.1-0.9-0.3c-3.4-4-2.6-3.1-2.6-3.1l-1,0.8l2.9,3.5c0,0,0.2,0.2-0.2,0.6c-0.4,0.4-0.6,0-0.8-0.2
		c-3.4-4-2.7-3.2-2.7-3.2l-0.9,0.8l3.2,3.9c0,0,1.2,1.7,2.3,1.6c0.6-0.1,1.3,0,1.9,0.1l9,11.1c0.4,0.5,1.2,0.6,1.6,0.1
		c0.5-0.4,0.6-1.2,0.1-1.6l-9.3-10.6c-0.1-0.3-0.1-0.9-0.1-1.4c0.1-1,0.4-1.7-1-3.4c-4.1-4.5-3.4-3.6-3.4-3.6L1555.7,795.4z"/>
	
		<linearGradient id="SVGID_00000120553841324302648460000009292614393410225826_" gradientUnits="userSpaceOnUse" x1="-7080.9517" y1="4994.4995" x2="-6494.0132" y2="5404.249" gradientTransform="matrix(-0.884 -0.2802 -0.3279 1.0343 -2941.3477 -6529.1519)">
		<stop  offset="4.333000e-02" style="stop-color:#3AE8F0"/>
		<stop  offset="1" style="stop-color:#2B93F1"/>
	</linearGradient>
	<path style="opacity:0.11;fill:url(#SVGID_00000120553841324302648460000009292614393410225826_);" d="M1091,972.9
		c-25.4,1.5-47.7-16.7-51.2-41.9c-17.6-128.4,15.8-270.5,91.1-379c24.9-35.9,54.3-68.4,88.4-92.1c82-56.7,181.4-56.2,270.5-37.8
		c66.5,13.7,130.9,36.3,191.5,67.1c50.1,25.5,98.7,57.7,132,106.7c33.2,49,48.8,117.4,28.9,179.9c-6.8,21.3-17.4,41.2-29.3,59.8
		c-47.8,75.4-117.7,133.4-194.2,161.3c-26.5,9.7-53.7,15.8-80.8,21.6c-28.8,6.2-57.7,12-86.7,13.7c-45.4,2.6-89.8-5.1-133.9-12.8
		C1241.4,1006.1,1165.3,992.8,1091,972.9L1091,972.9z"/>
</g>
<g id="Capa_3">
	<g>
		
			<image style="overflow:visible;opacity:0.75;" width="376" height="348" xlink:href="8410C4581947F3FC.png"  transform="matrix(1 0 0 1 114 134)">
		</image>
		<g>
			<path class="st47" d="M456.7,163.3c0,0,7.8,116,10.4,165.4c0.8,14.9-6.2,28.3-21,31.6l-58,12.9c-2.2,0.5-4,2.1-4.9,4.2
				l-30.7,78.2c-0.8,2.1-2.7,3.7-4.9,4.2c-2.2,0.5-4.6-0.2-6.2-1.7l-60.6-57.8c-1.7-1.6-4-2.2-6.3-1.7l-58.2,12.9
				c-14.7,3.3-26.7-6-32.4-19.8c-18.3-44.2-60.7-154.3-60.7-154.3c-1.5-7-0.2-14.4,3.7-20.5c3.9-6.1,10.1-10.3,17.1-11.9l280.1-62.3
				c7-1.6,14.4-0.3,20.5,3.5C450.8,150.2,455.1,156.3,456.7,163.3L456.7,163.3z"/>
		</g>
	</g>
	<text transform="matrix(0.9762 -0.217 0.217 0.9762 144.6466 263.8697)"><tspan x="0" y="0" class="st0 st51 st52">Aprovecha las cancelaciones</tspan><tspan x="0.9" y="31.2" class="st0 st51 st52"> de ltima hora y disfruta de </tspan><tspan x="16.8" y="62.3" class="st0 st51 st52">tus restaurantes favoritos</tspan><tspan x="42.8" y="93.5" class="st0 st51 st52"> a un precio increible</tspan></text>
	<g>
		
			<image style="overflow:visible;opacity:0.75;" width="381" height="354" xlink:href="8410C4581947F3FB.png"  transform="matrix(1 0 0 1 1426 76)">
		</image>
		<g>
			<path class="st47" d="M1784.3,186.8c0,0-44.6,108.9-64.2,154.9c-5.9,13.9-18.3,23-33.1,19.4l-58.5-14.1c-2.2-0.5-4.6,0.1-6.3,1.6
				l-62.7,57.3c-1.7,1.6-4.1,2.2-6.3,1.6c-2.3-0.5-4.1-2.2-4.9-4.4l-29.3-79.5c-0.8-2.2-2.7-3.8-4.9-4.4l-58.7-14.2
				c-14.8-3.6-21.6-17.3-20.6-32.4c3.1-48.3,13.6-167.1,13.6-167.1c1.8-7.1,6.2-13.2,12.5-16.9c6.2-3.8,13.7-4.9,20.8-3.2
				l282.2,68.2c7.1,1.7,13.2,6.1,17.1,12.3C1784.7,172.2,1785.9,179.7,1784.3,186.8L1784.3,186.8z"/>
		</g>
	</g>
	<text transform="matrix(0.972 0.2349 -0.2349 0.972 1483.2361 148.623)"><tspan x="0" y="0" class="st0 st51 st53">Localiza en el mapa tus </tspan><tspan x="8.5" y="31.5" class="st0 st51 st53">restaurantes favoritos </tspan><tspan x="2.2" y="63.1" class="st0 st51 st53">y gestiona tus reservas </tspan><tspan x="-7.6" y="94.6" class="st0 st51 st53">desde tu perfil de usuario</tspan></text>
	<g>
		
			<image style="overflow:visible;opacity:0.75;" width="392" height="360" xlink:href="8410C4581947F404.png"  transform="matrix(1 0 0 1 548 102)">
		</image>
		<g>
			<path class="st47" d="M913.9,286.9c0,0-70.2,92.7-100.7,131.7c-9.2,11.8-23.3,17.3-36.6,10.1l-52.3-28.3c-2-1.1-4.4-1.1-6.4,0
				l-74.4,38.9c-2,1.1-4.5,1-6.5-0.1c-2-1.1-3.3-3.1-3.6-5.4l-7.8-83.4c-0.2-2.3-1.6-4.3-3.6-5.4l-52.5-28.4
				c-13.3-7.2-16.2-22-11.5-36.2c15.2-45.4,55.4-156.2,55.4-156.2c3.5-6.3,9.3-11,16.2-13c6.9-2,14.4-1.2,20.7,2.3l252.3,136.7
				c6.4,3.4,11.1,9.2,13.2,16.1C918,273.1,917.3,280.5,913.9,286.9L913.9,286.9z"/>
		</g>
	</g>
	<text transform="matrix(0.8792 0.4764 -0.4764 0.8792 612.3414 158.0576)"><tspan x="0" y="0" class="st0 st51 st52">Aprovecha las cancelaciones</tspan><tspan x="0.9" y="31.2" class="st0 st51 st52"> de ltima hora y disfruta de </tspan><tspan x="16.8" y="62.3" class="st0 st51 st52">tus restaurantes favoritos</tspan><tspan x="42.8" y="93.5" class="st0 st51 st52"> a un precio increible</tspan></text>
	<g>
		
			<image style="overflow:visible;opacity:0.75;" width="396" height="364" xlink:href="8410C4581947F407.png"  transform="matrix(1 0 0 1 993 71)">
		</image>
		<g>
			<path class="st47" d="M1309.4,93.6c0,0,39.4,110.9,55.4,158.3c4.8,14.3,1.7,29.3-11.8,36.5l-53,28.4c-2,1.1-3.4,3.1-3.6,5.4
				l-8.5,84.5c-0.2,2.3-1.6,4.3-3.6,5.4c-2,1.1-4.5,1.1-6.5,0l-74.8-39.7c-2.1-1.1-4.5-1.1-6.6,0l-53.2,28.5
				c-13.5,7.2-27.6,1.5-36.9-10.4c-29.9-38.1-101.3-133.7-101.3-133.7c-3.4-6.4-4.1-14-2-21c2.1-7,7-12.8,13.4-16.2l255.8-137.3
				c6.4-3.5,13.9-4.3,20.9-2.2C1300,82.4,1305.9,87.2,1309.4,93.6L1309.4,93.6z"/>
		</g>
	</g>
	<text transform="matrix(0.8812 -0.4728 0.4728 0.8812 1032.9023 276.8328)"><tspan x="0" y="0" class="st0 st51 st53">Aprovecha las cancelaciones</tspan><tspan x="0.9" y="31.5" class="st0 st51 st53"> de ltima hora y disfruta de </tspan><tspan x="17" y="63.1" class="st0 st51 st53">tus restaurantes favoritos</tspan><tspan x="43.3" y="94.6" class="st0 st51 st53"> a un precio increible</tspan></text>
</g>
</svg>
